<?xml version="1.0" encoding="utf-8"?>
<!-- Generator: Adobe Illustrator 16.0.3, SVG Export Plug-In . SVG Version: 6.00 Build 0)  -->
<!DOCTYPE svg PUBLIC "-//W3C//DTD SVG 1.1//EN" "http://www.w3.org/Graphics/SVG/1.1/DTD/svg11.dtd">
<svg version="1.1" id="_x2018_лой_x5F_1" xmlns="http://www.w3.org/2000/svg" xmlns:xlink="http://www.w3.org/1999/xlink"
	 x="0px" y="0px" width="2800px" height="2000px" viewBox="0 0 2800 2000" enable-background="new 0 0 2800 2000"
	 xml:space="preserve">
<g>
	<path fill="#EBF3FA" d="M421.413,1796.287c0,0-312.49-338.383-202.583-732.838c71.786-257.639,309.81-101.548,297.134-519.22
		c-12.676-417.672,701.332-461.076,899.29-339.901s202.148,198.596,610.915,150.477s586.658,319.11,374.871,627.63
		c-185.461,270.171,418.669,243.067,59.541,814.606L421.413,1796.287z"/>
	<path fill="#DFEBFD" d="M1182.907,662.847l35.62-4.013c2.969-0.306,5.855,1.078,7.479,3.579c2.061,3.201,4.271,6.337,6.627,9.409
		c4.381,5.709,9.07,10.985,14.105,15.749c2.355,2.235,3.136,5.629,1.933,8.623l-13.66,34.883c-1.493,3.708,0.149,7.97,3.792,9.76
		l30.691,15.2c3.484,1.714,7.656,0.534,9.756-2.705l18.558-29.077c1.745-2.867,5.211-4.195,8.553-3.309
		c14.099,3.726,28.774,5.184,43.448,4.327c3.542-0.203,6.837,2.1,7.898,5.476l6.29,20.02c1.23,3.788,5.105,6.14,9.055,5.376
		l33.33-6.741c0.687-0.132,1.326-0.328,1.925-0.639c2.888-1.377,4.667-4.518,4.264-7.807l-2.967-26.612l-0.736-6.484
		c5.544-3.12,10.98-6.7,16.162-10.675c6.981-5.357,13.34-11.27,18.966-17.559c2.156-2.394,5.534-3.26,8.528-2.057l28.087,11.036
		c3.85,1.483,8.196-0.176,9.994-3.873l11.626-23.462l3.313-6.732c1.822-3.666,0.6-8.15-2.851-10.334l-24.288-15.528
		c-2.835-1.768-4.233-5.132-3.423-8.317c2.265-9.576,3.526-19.369,3.701-29.165c0.084-0.854,0.075-1.636,0.074-2.473
		c-0.019-0.282,0.018-0.556,0.054-0.83c0.302-3.14,2.487-5.753,5.512-6.694l32.485-10.283c0.374-0.09,0.731-0.266,1.059-0.418
		c3.159-1.537,4.967-5.092,4.286-8.613l-6.669-33.236c-0.811-4.012-4.525-6.732-8.627-6.296l-37.151,4.201
		c-3.148,0.395-6.17-1.23-7.671-4.022c-3.354-6.104-7.228-12.054-11.632-17.795c-2.334-3.041-4.768-5.955-7.302-8.744
		c-2.043-2.277-2.648-5.509-1.522-8.346l13.119-33.532c1.462-3.685-0.157-7.915-3.744-9.698l-30.384-14.992
		c-3.665-1.822-8.119-0.623-10.365,2.875l-14.688,23.003c-1.969,3.088-5.741,4.405-9.188,3.253
		c-13.499-4.679-27.646-7.184-41.911-7.528c-3.372-0.026-6.369-2.261-7.39-5.521l-9.255-29.28c-1.24-3.93-5.255-6.271-9.291-5.492
		l-33.12,6.629c-3.98,0.787-6.678,4.532-6.195,8.5l0.157,1.556l3.46,30.917c0.373,3.313-1.322,6.437-4.286,7.972l-0.031,0.023
		c-7.094,3.668-13.97,8.007-20.548,13.055c-3.506,2.69-6.808,5.519-10.014,8.472c-2.198,2.081-5.375,2.695-8.188,1.6l-28.511-11.203
		c-3.897-1.545-8.337,0.185-10.166,3.906l-14.947,30.25c-0.42,0.865-0.652,1.783-0.769,2.66c-0.297,2.89,1.042,5.856,3.587,7.502
		l19.434,12.35c2.364,1.539,3.739,4.23,3.628,6.978c-0.039,0.72-0.164,1.457-0.399,2.179c-5.912,17.353-8.269,35.676-6.997,53.976
		c0.261,3.103-1.46,6-4.159,7.43c-0.389,0.2-0.802,0.369-1.238,0.506l-26.311,8.307c-3.812,1.2-6.109,5.082-5.346,9.031l0.149,0.773
		l6.472,32.401C1175.005,660.579,1178.774,663.306,1182.907,662.847z M1410.795,561.696c2.035,5.094,3.683,10.583,4.835,16.453
		c2.18,11.194-0.091,28.859-5.149,39.1c-0.536,1.101-1.095,2.171-1.654,3.241c-34.854,64.701-126.216,51.833-141.261-21.169
		c-1.951-9.546-0.734-23.444,2.677-34.098c0.826-2.458,1.715-4.767,2.727-6.726c4.655-9.29,10.42-17.066,17.001-23.397
		C1327.492,499.064,1390.18,510.863,1410.795,561.696z"/>
	<path fill="#DFEBFD" d="M2313.936,538.083c-34.197-68.921-152.594-21.74-152.594-21.74s-58.14,144.051-81.816,151.909
		c-23.678,7.858,25.659-132.866,25.659-132.866c-47.947,4.792-156.374,86.273-156.374,86.273s37.131,147.208,12.247,148.997
		c-24.883,1.788-26.227-132.023-26.227-132.023c-42.813,22.702-74.751,84.255-74.751,84.255
		c-35.93,97.049,90.545,138.174,90.545,138.174s11.768,51.293-8.343,116.806l-0.002,0.002c0,0-5.021,12.355-8.642,32.381
		l12.411-2.466c0.353-3.529,0.831-6.968,1.454-10.303c-0.004-0.024,0-0.042,0.014-0.061c0.009-0.049,0.019-0.096,0.027-0.145
		c0.469-2.087,1.149-5.059,2.012-8.686c0.001-0.004,0.002-0.009,0.004-0.014c-0.002-0.008,0.006-0.01,0.004-0.018
		c2.317-8.176,3.79-14.168,4.624-18.449c0.003-0.014,0.005-0.027,0.005-0.04c6.732-25.558,17.069-59.169,26.721-67.706
		c0,0-1.758-1.659-3.787-5.165c1.207,1.647,2.467,3.364,3.787,5.165c30.289,41.305,138.021,27.79,194.792,3.893
		s27.657-35.465-9.592-56.226c-37.25-20.761-102.601-0.355-124.439-7.059c-21.837-6.703,4.885-23.054,44.942-27.856
		c40.059-4.803,67.624,30.733,132.565,24.141c64.94-6.591,89.685-136.121,89.685-136.121c-41.294,22.4-125.027,13.796-131.077-0.776
		s111.1-36.267,128.405-44.438C2323.501,649.755,2348.133,607.004,2313.936,538.083z"/>
	<path fill="#DFEBFD" d="M360.453,1067.818c-13.919-75.669,109.139-108.84,109.139-108.84s132.863,80.488,156.527,72.593
		c23.665-7.896-100.157-90.997-100.157-90.997c41.258-24.893,176.888-24.63,176.888-24.63s58.481,140.104,79.474,126.625
		s-58.111-121.413-58.111-121.413c47.878-7.478,110.331,22.664,110.331,22.664c86.917,56.168,10.305,164.877,10.305,164.877
		s21.315,48.116,76.67,88.515l0.002,0.001c0,0,11.423,6.884,26.322,20.746l-11.414,5.463c-2.397-2.614-4.841-5.081-7.338-7.377
		c-0.011-0.021-0.025-0.033-0.047-0.041c-0.036-0.033-0.073-0.065-0.109-0.099c-1.626-1.39-3.951-3.361-6.814-5.748
		c-0.004-0.003-0.007-0.006-0.011-0.009c-0.003-0.008-0.011-0.004-0.014-0.012c-6.754-5.157-11.524-9.072-14.756-12
		c-0.011-0.009-0.02-0.018-0.028-0.028c-20.705-16.427-49.12-37.143-61.962-38.194c0,0,0.413-2.381-0.063-6.404
		c0.02,2.043,0.041,4.172,0.063,6.404c0.5,51.218-93.848,104.952-153.618,119.837c-59.77,14.886-43.393-11.82-26.011-50.762
		c17.382-38.941,81.929-61.764,95.396-80.216s-17.725-15.529-52.673,4.628s-35.724,65.125-91.665,98.761
		c-55.941,33.636-153.366-55.238-153.366-55.238c46.482-6.811,108.364-63.872,104.476-79.163
		c-3.889-15.292-110.678,37.536-129.428,41.364C419.709,1162.954,374.372,1143.487,360.453,1067.818z"/>
	<path fill="#DFEBFD" d="M2386.937,1553.496c60.554-47.464-9.658-153.831-9.658-153.831s-152.849-27.718-165.345-49.31
		c-12.498-21.591,135.309-1.819,135.309-1.819c-14.418-45.979-116.194-135.628-116.194-135.628s-136.618,66.214-143.416,42.21
		c-6.798-24.003,123.96-52.457,123.96-52.457c-30.912-37.318-97.664-56.11-97.664-56.11
		c-102.318-15.5-116.939,116.686-116.939,116.686s-47.841,21.926-116.071,15.52l-0.003-0.001c0,0-13.116-2.411-33.461-1.896
		l4.932,11.653c3.528-0.37,6.992-0.6,10.384-0.665c0.022-0.01,0.041-0.009,0.063,0c0.049-0.001,0.098-0.001,0.146-0.002
		c2.139,0.036,5.187,0.1,8.913,0.208c0.005,0.001,0.01,0.001,0.014,0.001c0.008-0.003,0.012,0.004,0.019,0.001
		c8.477,0.61,14.643,0.838,19.004,0.786c0.014,0.001,0.026-0.001,0.04-0.004c26.392,1.41,61.4,4.716,71.718,12.436
		c0,0,1.269-2.058,4.289-4.757c-1.367,1.517-2.794,3.099-4.289,4.757c-34.304,38.036,0.778,140.789,35.692,191.533
		c34.914,50.745,40.337,19.891,53.112-20.796c12.776-40.686-20.46-100.541-18.324-123.284s23.565,0.107,36.393,38.359
		s-16.38,72.451,3.245,134.706c19.624,62.255,151.48,60.216,151.48,60.216c-30.31-35.894-38.865-119.632-25.823-128.512
		c13.042-8.879,58.045,101.437,69.556,116.726C2279.524,1585.511,2326.383,1600.961,2386.937,1553.496z"/>
	<g>
		<path opacity="0.5" fill="#C5DDFF" d="M1837.198,662.707c0,0,7.102-141.771,73.373-230.648
			c8.808-11.812,27.623-5.974,28.327,8.742c0.012,0.246,0.021,0.494,0.03,0.745C1939.725,466.693,1866.34,578.057,1837.198,662.707z
			"/>
		<path opacity="0.5" fill="#C5DDFF" d="M1831.215,703.566c0,0,59.692-180.702,176.975-266.879
			c7.151-5.255,17.397-4.234,22.914,2.718c3.593,4.527,5.57,11.851,2.705,23.695C2026.167,494.687,1896.56,608.165,1831.215,703.566
			z"/>
	</g>
	<g>
		<path opacity="0.5" fill="#C5DDFF" d="M815.918,892.991c0,0-59.487-103.763-143.209-145.198
			c-11.126-5.506-23.028,6.065-17.935,17.386c0.085,0.189,0.172,0.379,0.262,0.571C664.044,784.941,761.698,840.548,815.918,892.991
			z"/>
		<path opacity="0.5" fill="#C5DDFF" d="M836.021,921.392c0,0-113.856-112.912-234.857-132.834
			c-7.378-1.215-14.684,3.466-16.171,10.794c-0.969,4.772,0.343,11.028,7.02,18.829
			C609.816,838.985,750.502,874.703,836.021,921.392z"/>
	</g>
	<path fill="#AEC3FF" d="M2129.504,668.687v900.101c0,15.746-11.368,28.52-25.384,28.52H805.471
		c-14.015,0-25.384-12.773-25.384-28.52V668.687c0-15.76,11.369-28.52,25.384-28.52H2104.12
		C2118.136,640.167,2129.504,652.927,2129.504,668.687z"/>
	<g>
		<path fill="#F99746" d="M2065.309,617.301v72.994H616.018v-72.994c0-15.064,12.21-27.263,27.263-27.263h1394.766
			C2053.099,590.038,2065.309,602.236,2065.309,617.301z"/>
		<g>
			<circle fill="#DFEBFD" cx="673.044" cy="640.167" r="12.692"/>
			<circle fill="#DFEBFD" cx="723.056" cy="640.167" r="12.692"/>
			<circle fill="#DFEBFD" cx="774.331" cy="640.167" r="12.692"/>
		</g>
	</g>
	<path fill="#DFEBFD" d="M1554.935,511.413l17.348-1.954c1.445-0.149,2.852,0.525,3.642,1.743c1.004,1.559,2.08,3.086,3.228,4.583
		c2.134,2.78,4.417,5.35,6.869,7.669c1.147,1.089,1.527,2.742,0.942,4.2l-6.653,16.988c-0.727,1.806,0.073,3.881,1.847,4.753
		l14.947,7.402c1.696,0.834,3.729,0.26,4.751-1.317l9.038-14.161c0.85-1.396,2.537-2.043,4.165-1.611
		c6.866,1.814,14.014,2.525,21.16,2.107c1.725-0.099,3.329,1.022,3.847,2.667l3.063,9.75c0.6,1.845,2.486,2.99,4.41,2.618
		l16.231-3.283c0.335-0.064,0.646-0.159,0.938-0.312c1.406-0.67,2.273-2.2,2.077-3.802l-1.445-12.96l-0.358-3.158
		c2.7-1.519,5.348-3.263,7.871-5.199c3.4-2.609,6.496-5.489,9.236-8.552c1.05-1.166,2.695-1.587,4.153-1.001l13.679,5.374
		c1.875,0.723,3.991-0.085,4.867-1.886l5.661-11.426l1.614-3.279c0.887-1.785,0.292-3.97-1.389-5.033l-11.828-7.563
		c-1.381-0.861-2.062-2.5-1.668-4.051c1.104-4.664,1.719-9.433,1.804-14.203c0.041-0.416,0.036-0.797,0.035-1.205
		c-0.009-0.137,0.009-0.271,0.026-0.404c0.147-1.529,1.212-2.802,2.685-3.26l15.82-5.008c0.183-0.044,0.356-0.129,0.516-0.204
		c1.539-0.749,2.419-2.48,2.088-4.195l-3.248-16.187c-0.395-1.954-2.204-3.278-4.201-3.066l-18.094,2.046
		c-1.533,0.192-3.004-0.599-3.735-1.959c-1.633-2.973-3.52-5.87-5.665-8.666c-1.137-1.481-2.321-2.9-3.556-4.258
		c-0.995-1.109-1.29-2.683-0.741-4.064l6.389-16.33c0.712-1.794-0.076-3.854-1.823-4.723l-14.797-7.301
		c-1.785-0.887-3.954-0.303-5.048,1.4l-7.154,11.203c-0.958,1.504-2.795,2.145-4.474,1.584c-6.574-2.279-13.464-3.499-20.411-3.666
		c-1.643-0.013-3.102-1.102-3.6-2.688l-4.507-14.26c-0.604-1.914-2.56-3.054-4.524-2.674l-16.13,3.228
		c-1.938,0.383-3.252,2.207-3.018,4.14l0.077,0.757l1.685,15.057c0.182,1.613-0.644,3.135-2.087,3.882l-0.015,0.011
		c-3.455,1.787-6.804,3.899-10.008,6.358c-1.707,1.31-3.315,2.688-4.877,4.126c-1.07,1.014-2.618,1.313-3.987,0.779l-13.886-5.456
		c-1.897-0.752-4.06,0.09-4.95,1.902l-7.279,14.732c-0.205,0.421-0.318,0.868-0.375,1.295c-0.145,1.407,0.508,2.852,1.747,3.653
		l9.465,6.015c1.151,0.75,1.82,2.061,1.767,3.398c-0.019,0.351-0.08,0.709-0.193,1.062c-2.879,8.451-4.027,17.375-3.408,26.287
		c0.127,1.511-0.711,2.922-2.025,3.619c-0.188,0.097-0.39,0.179-0.603,0.246l-12.813,4.046c-1.856,0.584-2.976,2.475-2.604,4.398
		l0.072,0.376l3.152,15.78C1551.086,510.309,1552.922,511.637,1554.935,511.413z M1665.918,462.152
		c0.991,2.481,1.793,5.154,2.354,8.013c1.062,5.452-0.044,14.055-2.508,19.042c-0.261,0.536-0.533,1.057-0.806,1.579
		c-16.974,31.51-61.469,25.243-68.795-10.31c-0.95-4.649-0.357-11.418,1.304-16.606c0.402-1.197,0.835-2.322,1.328-3.275
		c2.267-4.524,5.074-8.312,8.279-11.395C1625.349,431.65,1655.878,437.396,1665.918,462.152z"/>
	<g>
		<path fill="#2C3A64" d="M751.434,1325.802c0,0,1.933-21.064-21.603-21.064c0,0,7.131,1.935,10.821,5.804
			c0,0-15.011-8.813-31.347,4.729c-16.336,13.541-6.186,47.503-11.153,53.951s-24.313,7.737-21.948,28.588
			c2.364,20.85,61.396,46.963,57.605,64.213c0,0,23.134-34.006,6.592-49.525c0,0,8.063,7.595,8.884,16.622
			c0,0,2.188-17.625-9.028-23.263c-9.925-4.989-18.055-23.234-17.195-26.496C723.921,1376.099,751.434,1325.802,751.434,1325.802z"
			/>
		<path fill="#FFB27D" d="M728.264,1426.938c0,0,17.583,72.741,34.843,87.283c10.375,8.74,41.221,28.798,41.221,28.798
			l-12.831,4.656c0,0-42.785-14.449-52.364-25.711c-9.579-11.263-35.805-67.695-35.805-67.695L728.264,1426.938z"/>
		<path fill="#2F539B" d="M563.012,1554.731c0.154,0.278,0.319,0.566,0.483,0.854c3.848,6.687,12.674,23.074,22.396,41.006
			c4.599,8.508,9.413,17.365,13.981,25.698c7.87,14.382,15.03,27.189,19.207,33.959c4.249,6.882,7.376,11.718,8.642,13.651
			c0.01,0.011,0.01,0.011,0.01,0.011c0.38,0.597,0.463,1.296,0.411,1.995c-0.442,6.07-0.319,12.099,0.278,18.034
			c5.864,58.341,45.204,89.604,45.204,89.604l11.697,1.729c0,0-16.553-61.324-21.429-95.993c-0.823-5.874-1.183-10.638-0.896-13.744
			c0.865-9.032-0.74-22.293-3.775-37.519c-5.401-27.057-15.308-60.265-23.918-86.848c-0.545-1.697-16.995-61.2-16.995-61.2
			c-13.806,12.067-64.163,17.047-64.163,17.047S545.606,1523.776,563.012,1554.731z"/>
		<path fill="#234375" d="M709.87,1796.073h-48.818c0,0-1.17-7.44,1.379-13.085c2.443-5.416,5.926-5.588,0.445-14.079
			c3.102,3.194,13.074,4.516,20.131,3.566c0.865,1.401,5.575,10.808,8.464,12.883C694.662,1787.65,708.888,1786.834,709.87,1796.073
			z"/>
		<path fill="#233862" d="M563.012,1554.731c0.154,0.278,0.319,0.566,0.483,0.854c3.848,6.687,24.656,45.12,34.377,63.052
			c-11.265-46.346-3.43-92.691-3.43-92.691L563.012,1554.731z"/>
		<path fill="#2C3A64" d="M744.775,1322.84c0.319-1.282-27.882,12.746-29.312,14.332c-13.227,14.671-9.456,33.816-1.887,34
			c4.854,0.118,3.913,8.188,3.913,8.188l54.072-22.874C771.562,1356.485,765.051,1318.521,744.775,1322.84z"/>
		<path fill="#F99746" d="M726.604,1416.015c0,0,8.229,16.437,7.202,29.777c0,0-9.922,15.662-35.655,19.628
			C698.151,1465.42,720.275,1416.002,726.604,1416.015z"/>
		<path fill="#2F539B" d="M601.069,1506.651l0.166-9.131c-18.191,2.294-62.725-21.738-62.725-21.738s-19.031,12.658-21.637,48.807
			c-1.271,17.645-9.316,92.264-10.206,114.545c-0.325,8.076-0.432,13.84-0.469,16.143c0.004,0.012,0.003,0.017,0.002,0.022
			c-0.011,0.703-0.34,1.323-0.773,1.879c-3.764,4.784-7.03,9.854-9.857,15.109c-27.759,51.647-13.243,121.824-13.243,121.824
			l6.446-1.639c0,0,23.472-72.75,38.812-104.219c2.604-5.337,4.969-9.487,6.948-11.892c5.768-7.006,11.85-18.903,17.845-33.22
			C563.71,1616.072,601.069,1506.651,601.069,1506.651z"/>
		<path fill="#234375" d="M521.149,1796.073h-48.818c0,0-1.17-7.44,1.379-13.085c2.443-5.416,6.271-7.878,5.354-14.432
			c3.102,3.194,8.158,6.771,15.215,5.821c0.865,1.402,5.583,8.905,8.471,10.98C505.941,1787.65,520.167,1786.834,521.149,1796.073z"
			/>
		<path fill="#F99746" d="M694.855,1475.903c-6.558,1.118,1.071,6.331-7.948,7.311c-12.836,1.401-26.09,2.36-33.033,5.129
			c-2.532,1.01-4.226,2.257-4.754,3.852c-3.009,9.05-22.068,24.599-22.068,24.599c-85.006-3.869-90.481-41.756-90.481-41.756
			c55.17-53.582,102.105-82.788,140.896-86.402c9.441-0.881,22.166,0.301,28.136,2.959c13.567,6.04,21.002,24.421,21.002,24.421
			S719.771,1471.653,694.855,1475.903z"/>
		<path fill="#ED7D2B" d="M686.907,1483.214c-12.836,1.401-26.09,2.36-33.033,5.129c-2.837-42.396,17.17-74.285,17.17-74.285
			S684.096,1467.171,686.907,1483.214z"/>
		<path fill="#FFB27D" d="M704.877,1395.091c2.426,7.601,10.515,29.259,21.728,20.924c-0.38-1.615,1.975-6.316,4.753-11.09
			c3.549-6.101,7.777-12.335,7.777-12.335l-18.271-16.008l-1.09-0.956c-4.778,8.344-9.477,12.359-13.591,15.43
			C704.932,1391.989,704.403,1393.604,704.877,1395.091z"/>
		<path fill="#ED985F" d="M739.133,1392.596c0,0-4.223,6.222-7.774,12.329c-11.356-7.001-11.368-21.06-10.493-28.343
			L739.133,1392.596z"/>
		<path fill="#FFB27D" d="M739.64,1400.617c0,0-27.574-15.344-17.754-32.368c9.819-17.024,12.873-30.47,30.894-21.394
			c18.02,9.076,17.664,17.528,15.768,24.008C766.652,1377.343,747.065,1404.169,739.64,1400.617z"/>
		<path fill="#2C3A64" d="M773.205,1360.934c-1.263-7.559-5.103-8.28-7.78-7.775c-10.183-16.84-26.819-10.269-26.819-10.269
			c-8.886,11.151-21.733,13.054-21.733,13.054s3.2,5.954,16.383,9.64c4.027,1.125,8.598,0.443,13.006-1.04
			c-9.146,5.1-18.712,7.054-18.712,7.054c17.374,1.59,33.903-14.294,35.618-15.993c0.802,2.462,2.208,7.615,1.366,11.383
			c-1.144,5.119-5.688,14.393-2.914,15.592C761.62,1382.578,775.099,1372.27,773.205,1360.934z"/>
		<g>
			
				<rect x="817.461" y="1626.639" transform="matrix(0.8989 0.4382 -0.4382 0.8989 820.2162 -240.8383)" fill="#2B478B" width="228.891" height="60.03"/>
			<g>
				<path fill="#2B478B" d="M751.53,1644.765c-18.885-9.207-32.305-26.267-36.819-46.807c-1.833-8.338,3.442-16.584,11.78-18.416
					c8.339-1.832,16.583,3.441,18.416,11.78c2.474,11.26,9.826,20.609,20.171,25.652c18.557,9.047,41.015,1.31,50.062-17.247
					s1.31-41.015-17.247-50.062c-8.429-4.109-18.017-4.91-26.999-2.258c-8.188,2.418-16.786-2.259-19.204-10.445
					c-2.419-8.188,2.258-16.786,10.446-19.205c16.407-4.846,33.917-3.384,49.305,4.118c33.881,16.518,48.007,57.52,31.489,91.399
					C826.412,1647.156,785.41,1661.282,751.53,1644.765z"/>
			</g>
			<g>
				<path fill="#2B478B" d="M1042.587,1786.662c-33.88-16.518-48.006-57.52-31.489-91.4c16.518-33.881,57.52-48.007,91.4-31.489
					c15.388,7.502,27.325,20.396,33.613,36.307c3.137,7.939-0.755,16.92-8.695,20.058c-7.939,3.139-16.92-0.754-20.058-8.694
					c-3.442-8.711-9.979-15.771-18.408-19.88c-18.557-9.047-41.015-1.31-50.062,17.247c-9.047,18.558-1.31,41.015,17.247,50.062
					c10.345,5.044,22.239,5.076,32.633,0.091c7.697-3.691,16.931-0.445,20.623,7.252c3.692,7.698,0.446,16.932-7.252,20.624
					C1083.179,1795.933,1061.473,1795.869,1042.587,1786.662z"/>
			</g>
			<path fill="#233862" d="M973.882,1685.96l-108.387-52.841c-3.109-1.516-4.413-5.299-2.897-8.407l2.755-5.651
				c1.516-3.109,5.299-4.412,8.408-2.896l108.387,52.84c3.109,1.516,4.412,5.3,2.896,8.408l-2.755,5.651
				C980.774,1686.172,976.99,1687.476,973.882,1685.96z"/>
		</g>
		<path fill="#FFB27D" d="M723.853,1589.954c0,0,0.596,5.14,2.768,7.792c2.172,2.652,8.49,9.073,8.601,12.831
			c0,0-0.319,1.669-1.674,1.364c-1.354-0.305-6.06-4.964-8.474-4.63c0,0,1.288,7.533,2.566,9.653
			c1.277,2.12,3.626,10.113,2.86,11.943s-13.55-8.824-17.422-14.03c-3.872-5.207-0.062-26.335-0.062-26.335L723.853,1589.954z"/>
		<path fill="#FFB27D" d="M697.982,1406.881c0,0-32.281-1.763-38.017,18.504s10.761,101.164,14.316,109.514
			c6.473,15.2,37.983,58.584,37.983,58.584l11.587-3.528c0,0-21.011-66.278-25.701-72.836
			C690.788,1506.822,707.645,1415.698,697.982,1406.881z"/>
		<path fill="#F99746" d="M653.599,1452.487c0.084,0.475,30.548,5.604,49.602-4.067c0,0,15.918-49.866-6.83-47.48
			s-36.217,9.551-36.791,20.44C659.007,1432.271,653.599,1452.487,653.599,1452.487z"/>
		<path fill="#FFB27D" d="M788.471,1510.59c-1.531,0.071-4.341,0.572-5.35,1.35c-1.76,1.357-3.739,3.719,0.205,5.684
			c5.917,2.946,17.748,1.639,17.286-0.137C799.156,1511.894,797.021,1510.194,788.471,1510.59z"/>
	</g>
	<g>
		<path fill="#FFB27D" d="M958.556,716.748c-1.557,1.784-1.755,3.777-0.984,5.906c0,0.008,0.006,0.021,0.015,0.029
			c1.425,3.937,6.131,8.333,11.598,12.723c0.698,0.564,1.32,1.077,1.861,1.552c0.142,0.125,0.284,0.25,0.418,0.375
			c0.11,0.096,0.216,0.197,0.321,0.29c5.098,4.7,3.18,5.776,12.338,15.312c10.443,10.866,17.634,11.062,19.679,10.072
			c1.73-0.844-1.786-6.606-5.681-13.084c-0.189-0.312-0.374-0.628-0.567-0.944c-0.519-0.861-1.035-1.735-1.55-2.601
			c-4.565-7.795-3.393-11.454-2.311-23.055c0.879-9.427,14.667-52.669,14.667-52.669l-20.013-3.447c0,0-6.027,34.433-12.668,39.736
			c-3.551,2.827-7.525,2.862-10.938,4.958c-0.241,0.146-0.478,0.295-0.71,0.449C962.092,713.633,960.116,714.96,958.556,716.748z"/>
		<path fill="#233862" d="M958.556,716.748c-1.557,1.784-1.755,3.777-0.984,5.906c0,0.008,0.006,0.021,0.015,0.029
			c1.745,3.933,6.333,8.307,11.617,12.683c0.69,0.573,1.3,1.1,1.842,1.592c0.142,0.125,0.284,0.25,0.418,0.375
			c0.11,0.096,0.216,0.197,0.321,0.29c5.098,4.7,3.18,5.776,12.338,15.312c10.443,10.866,17.634,11.062,19.679,10.072
			c1.73-0.844-1.786-6.606-5.681-13.084c-2.033-0.745-11.477-4.581-18.616-13.717c-6.289-8.024-10.482-18.335-14.764-24.307
			c-0.241,0.146-0.478,0.295-0.71,0.449C962.092,713.633,960.116,714.96,958.556,716.748z"/>
		<path fill="#FFB27D" d="M1119.931,704.249c1.236,6.178,10.042,5.147,19.88,2.743c9.838-2.404,7.5,0.454,21.501-1.096
			c14.002-1.55,18.244-6.771,18.671-8.853c0.382-1.848-6.537-2.499-13.958-3.354c-0.933-0.105-1.871-0.22-2.808-0.336
			c-8.378-1.051-14.514-6.458-22.124-10.897c-7.209-4.206-17.966-21.341-17.966-21.341l-19.202,1.521
			c0,0,10.076,15.305,13.974,21.959c2.292,3.914,2.17,9.089,1.885,13.085C1119.635,699.853,1119.493,702.073,1119.931,704.249z"/>
		<path fill="#233862" d="M1139.811,706.992c9.838-2.404,7.5,0.454,21.501-1.096c14.002-1.55,18.244-6.771,18.671-8.853
			c0.382-1.848-6.537-2.499-13.958-3.354l-0.069,0.143c0,0-8.397,5.954-20.052,6.233c-9.5,0.23-19.561-2.491-26.121-2.385
			c-0.148,2.172-0.291,4.393,0.147,6.568C1121.167,710.426,1129.972,709.396,1139.811,706.992z"/>
		<path fill="#2C3A64" d="M1046.344,581.466l-17.951,48.302l-23.435,63.069c0,0-6.36,0.614-12.45-1.138
			c-5.607-1.621-12.041-5.861-12.041-5.861s6.508-67.718,18.646-106.591c3.111-9.979,6.598-18.049,10.445-22.592
			C1028.376,534.416,1046.344,581.466,1046.344,581.466z"/>
		<path fill="#2F539B" d="M1028.093,504.755c-11.76-3.793-45.301,1.078-78.994,7.673l-7.054-11.636l-72.776-5.684
			c0,0-24.015,53.256-10.867,87.189c1.932,4.987,5.772,8.186,12.317,8.292c0.002,0.003,1.06-0.003,1.063,0
			c0,0,43.315-0.025,57.38-0.025c36.192,0,76.596-24.879,81.822-25.924c8.555-1.711,11.977,15.398,20.532,33.364
			c8.555,17.965,80.417,79.561,80.417,79.561s11.044,0.11,15.607-1.601c4.906-1.84,6.701-4.23,6.701-4.23
			S1054.613,513.311,1028.093,504.755z"/>
		<path fill="#2B478B" d="M917.931,279.242c-10.198-2.624-24.156-0.01-26.47,0.218c-27.692,2.727-36.995,33.618-32.805,57.582
			c3.868,22.118-7.351,28.236-20.351,45.705c-26.067,35.027-9.03,64.562,11.54,72.176c12.342,4.568,29.477-6.957,29.477-6.957
			c0.31,0.123,53.84-35.071,75.786-54.911C991.65,378.757,943.918,285.928,917.931,279.242z"/>
		<path fill="#FFB27D" d="M922.021,380.553c0.728,2.564-11.384,7.275-20.631,5.542c-8.698-1.622-18.448-11.808-16.438-12.763
			c3.329-1.582,5.569-5.516,3.748-26.785l1.655,0.188l27.83,3.177c0,0,0.084,8.67,0.731,16.791
			C919.457,373.521,920.835,376.373,922.021,380.553z"/>
		<path fill="#ED975D" d="M918.186,349.912c0,0,0.084,8.67,0.731,16.791c-15.36,0.825-24.607-12.491-28.561-19.968L918.186,349.912z
			"/>
		<path fill="#FFB27D" d="M923.934,357.181c0,0-36.209,3.571-38.086-19.013c-1.877-22.583-7.814-37.332,15.225-40.567
			c23.039-3.235,28.253,5.009,30.713,12.395C934.246,317.381,933.305,355.67,923.934,357.181z"/>
		<path fill="#2B478B" d="M920.055,294.037c0,0-4.56,27.589-25.182,34.135c-15.044,4.776-21.857,1.627-21.857,1.627
			s7.243-9.605,9.816-22.954c0.758-3.935,3.557-7.172,7.364-8.425C900.885,294.903,913.839,285.287,920.055,294.037z"/>
		<path fill="#2B478B" d="M913.231,299.921c0,0,6.823,1.521,12.871,10.326c3.305,4.812,7.132,16.942,6.479,22.313
			c0,0,6.338-25.535-2.903-35.033C919.879,287.454,913.231,299.921,913.231,299.921z"/>
		<path fill="#F99746" d="M856.82,454.74c0.645,2.743,1.198,5.266,1.647,7.593c0.737,3.756,1.245,6.994,1.602,9.851
			c1.106,8.907,0.772,14.184,1.521,19.957c0.415,3.226,1.175,6.613,2.708,10.865c1.498,4.137,40.846,7.824,63.233,6.337
			c7.109-0.461,12.524-1.463,14.448-3.123c7.985-6.936,7.19,8.319,8.285-64.673c0.53-35.603-30.21-67.312-30.21-67.312
			s-2.455,15.209-32.941-2.892c-1.083-0.634-13.089,17.145-24.646,39.037C849.734,434.565,853.225,439.681,856.82,454.74z"/>
		<path fill="#2B478B" d="M1028.393,629.769l-23.435,63.069c0,0-6.36,0.614-12.45-1.138c-5.607-1.621-12.041-5.861-12.041-5.861
			s6.508-67.718,18.646-106.591L1028.393,629.769z"/>
		<path fill="#F99746" d="M920.055,374.23c0,0,31.369,5.318,35.052,18.825c3.683,13.506,29.132,89.041,29.132,89.041
			s-19.719,6.729-27.086-0.638c-7.367-7.367-25.634-68.349-25.634-68.349L920.055,374.23z"/>
		<path fill="#FFFFFF" d="M915.577,343.863c0,0,1.517,3.713,5.526,3.713c4.01,0,5.093-0.599,5.852-1.449
			c0.759-0.849,1.512-2.485,1.512-2.485S921.823,342.331,915.577,343.863z"/>
		<path fill="#ED7D2B" d="M860.069,472.185c1.106,8.907,0.772,14.184,1.521,19.957c28.482,0.092,66.563-21.996,66.563-21.996
			L860.069,472.185z"/>
		<path fill="#ED7D2B" d="M928.152,451.465c0,0-44.371-1.322-51.851-26.543c-8.217-27.707-17.419,11.395-17.419,11.395l4.897,24.956
			h48.68L928.152,451.465z"/>
		<g>
			<path fill="#739AF0" d="M1005.505,383.03l-2.398-5.938c-2.571-6.367-8.75-10.536-15.617-10.536h-44.233v28.067V514.45h182.977
				V394.624H1022.69C1015.134,394.624,1008.334,390.037,1005.505,383.03z"/>
			<g>
				<path fill="#FFFFFF" d="M970.857,456.492v-10.661l37.391-16.378v10.893l-26.112,10.739l26.112,10.738v11.047L970.857,456.492z"
					/>
				<path fill="#FFFFFF" d="M1047.106,416.705h9.966l-34.224,71.538h-9.966L1047.106,416.705z"/>
				<path fill="#FFFFFF" d="M1098.635,445.831v10.661l-37.391,16.378v-10.893l26.112-10.738l-26.112-10.738v-11.048
					L1098.635,445.831z"/>
			</g>
		</g>
		<path fill="#FFB27D" d="M928.146,457.312l3.21-5.039c0,0,2.542-0.827,6.105-3.33c4.238-2.977,3.679-7.434,5.795-6.962l0.026,9.798
			l-0.23,0.033c9.093,2.429,19.727-0.21,19.94,2.053c0.585,6.229-4.231,9.032-8.268,10.983c-3.089,1.493-6.599,3.733-12.18,1.996
			c-4.08-1.27-10.5-2.562-10.5-2.562L928.146,457.312z"/>
		<path fill="#F99746" d="M887.108,371.349c0,0-28.802,1.885-36.003,13.119c-7.202,11.234-16.131,68.268-12.386,87.855
			c3.745,19.587,95.982-3.745,95.982-3.745l-2.942-16.995c0,0-53.232,0.308-56.266-6.625
			C871.46,435.741,887.108,371.349,887.108,371.349z"/>
		<path fill="#FFB27D" d="M1026.145,394.561c-0.248,0.747,4.332,8.293,10.872,6.981c4.077-0.818,9.379-9.598,4.721-11.534
			C1033.965,386.778,1026.806,392.566,1026.145,394.561z"/>
	</g>
	<g>
		<g>
			
				<rect x="1360.198" y="576.668" transform="matrix(0.8822 0.4709 -0.4709 0.8822 485.3698 -559.4664)" fill="#2A4E96" width="1.097" height="227.165"/>
		</g>
		<g>
			
				<rect x="1657.323" y="654.358" transform="matrix(0.6798 0.7334 -0.7334 0.6798 1039.3423 -1070.6587)" fill="#2A4E96" width="176.893" height="1.097"/>
		</g>
		<g>
			<path fill="#EBF3FA" d="M1880.631,757.643c1.785,12.994-1.779,25.519-8.973,35.237c-7.186,9.716-17.99,16.611-30.682,18.355
				l-537.632,73.873c-27.441,3.771-52.814-14.409-56.384-40.396c-1.786-12.994,2.198-25.577,10.072-35.382
				c7.861-9.81,19.607-16.834,33.328-18.719l537.633-73.873C1853.375,713.25,1877.06,731.656,1880.631,757.643z"/>
			<path fill="#F99746" d="M1880.631,757.643c1.785,12.994-1.779,25.519-8.973,35.237c-7.186,9.716-17.99,16.611-30.682,18.355
				l-97.288,13.368l-12.984-94.497l97.289-13.368C1853.375,713.25,1877.06,731.656,1880.631,757.643z"/>
			<g>
				<g>
					<path fill="#FFFFFF" d="M1821.416,783.28c-1.196,0.164-2.412,0.241-3.642,0.227c-6.492-0.075-12.566-2.674-17.104-7.318
						c-9.366-9.586-9.188-25.005,0.397-34.372l0,0c9.587-9.366,25.006-9.188,34.373,0.398c9.366,9.586,9.188,25.006-0.398,34.373
						C1831.278,780.265,1826.535,782.577,1821.416,783.28z M1803.867,744.68c-8.008,7.824-8.157,20.704-0.333,28.711
						c3.79,3.879,8.864,6.05,14.286,6.113c5.418,0.062,10.545-1.99,14.424-5.78c8.008-7.824,8.157-20.704,0.334-28.711
						C1824.754,737.004,1811.873,736.856,1803.867,744.68L1803.867,744.68z"/>
				</g>
				
					<rect x="1788.238" y="769.795" transform="matrix(0.6989 0.7152 -0.7152 0.6989 1101.5076 -1043.6466)" fill="#FFFFFF" width="4.003" height="33.171"/>
				<path fill="#FFFFFF" d="M1770.131,806.029L1770.131,806.029c-1.38-1.413-1.354-3.676,0.058-5.055l13.974-13.653
					c1.412-1.379,3.675-1.353,5.055,0.059l0,0c1.38,1.412,1.354,3.675-0.059,5.055l-13.973,13.653
					C1773.773,807.467,1771.51,807.441,1770.131,806.029z"/>
			</g>
		</g>
	</g>
	<g>
		<path fill="#F99746" d="M977.791,1271.105H865.466c-2.338,0-4.233-1.896-4.233-4.233v-1.782c0-2.338,1.896-4.233,4.233-4.233
			h112.325c2.338,0,4.233,1.896,4.233,4.233v1.782C982.023,1269.21,980.128,1271.105,977.791,1271.105z"/>
		<g>
			<path fill="#739AF0" d="M920.151,1306.344h-55.421c-1.931,0-3.497-1.565-3.497-3.497l0,0c0-1.931,1.566-3.497,3.497-3.497h55.421
				c1.931,0,3.497,1.566,3.497,3.497l0,0C923.648,1304.778,922.082,1306.344,920.151,1306.344z"/>
			<g>
				<path fill="#739AF0" d="M962.589,1291.677h-98.102c-1.797,0-3.254-1.457-3.254-3.255v-0.484c0-1.798,1.457-3.254,3.254-3.254
					h98.102c1.797,0,3.254,1.456,3.254,3.254v0.484C965.843,1290.22,964.386,1291.677,962.589,1291.677z"/>
				<path fill="#739AF0" d="M1069.917,1291.677h-91.395c-1.737,0-3.145-1.408-3.145-3.145v-0.704c0-1.737,1.408-3.145,3.145-3.145
					h91.395c1.737,0,3.145,1.407,3.145,3.145v0.704C1073.062,1290.269,1071.654,1291.677,1069.917,1291.677z"/>
				<path fill="#739AF0" d="M989.277,1306.344h-55.421c-1.931,0-3.497-1.565-3.497-3.497l0,0c0-1.931,1.565-3.497,3.497-3.497
					h55.421c1.931,0,3.497,1.566,3.497,3.497l0,0C992.774,1304.778,991.208,1306.344,989.277,1306.344z"/>
			</g>
		</g>
		<path fill="#F99746" d="M1114.567,1271.105h-112.325c-2.338,0-4.232-1.896-4.232-4.233v-1.782c0-2.338,1.895-4.233,4.232-4.233
			h112.325c2.338,0,4.233,1.896,4.233,4.233v1.782C1118.8,1269.21,1116.905,1271.105,1114.567,1271.105z"/>
	</g>
	<g>
		<path fill="#F99746" d="M977.791,1348.266H865.466c-2.338,0-4.233-1.895-4.233-4.232v-1.782c0-2.338,1.896-4.233,4.233-4.233
			h112.325c2.338,0,4.233,1.896,4.233,4.233v1.782C982.023,1346.371,980.128,1348.266,977.791,1348.266z"/>
		<g>
			<path fill="#739AF0" d="M920.151,1383.505h-55.421c-1.931,0-3.497-1.566-3.497-3.497l0,0c0-1.932,1.566-3.497,3.497-3.497h55.421
				c1.931,0,3.497,1.565,3.497,3.497l0,0C923.648,1381.938,922.082,1383.505,920.151,1383.505z"/>
			<g>
				<path fill="#739AF0" d="M962.589,1368.838h-98.102c-1.797,0-3.254-1.457-3.254-3.255v-0.485c0-1.797,1.457-3.254,3.254-3.254
					h98.102c1.797,0,3.254,1.457,3.254,3.254v0.485C965.843,1367.381,964.386,1368.838,962.589,1368.838z"/>
				<path fill="#739AF0" d="M1069.917,1368.838h-91.395c-1.737,0-3.145-1.408-3.145-3.146v-0.704c0-1.736,1.408-3.145,3.145-3.145
					h91.395c1.737,0,3.145,1.408,3.145,3.145v0.704C1073.062,1367.43,1071.654,1368.838,1069.917,1368.838z"/>
				<path fill="#739AF0" d="M989.277,1383.505h-55.421c-1.931,0-3.497-1.566-3.497-3.497l0,0c0-1.932,1.565-3.497,3.497-3.497
					h55.421c1.931,0,3.497,1.565,3.497,3.497l0,0C992.774,1381.938,991.208,1383.505,989.277,1383.505z"/>
			</g>
		</g>
		<path fill="#F99746" d="M1114.567,1348.266h-112.325c-2.338,0-4.232-1.895-4.232-4.232v-1.782c0-2.338,1.895-4.233,4.232-4.233
			h112.325c2.338,0,4.233,1.896,4.233,4.233v1.782C1118.8,1346.371,1116.905,1348.266,1114.567,1348.266z"/>
	</g>
	<g>
		<polygon fill="#233862" points="1561.628,879.289 1497.478,894.217 1465.756,951.939 1441.535,820.393 		"/>
		
			<rect x="1503.927" y="878.2" transform="matrix(0.797 -0.6039 0.6039 0.797 -244.4227 1096.9784)" fill="#233862" width="11.727" height="67.847"/>
	</g>
	<g>
		<path fill="#D4E1FF" d="M1519.632,1151.203h-157.743c-6.384,0-11.56-5.176-11.56-11.56V981.9c0-6.384,5.176-11.56,11.56-11.56
			h157.743c6.385,0,11.56,5.175,11.56,11.56v157.743C1531.191,1146.027,1526.017,1151.203,1519.632,1151.203z"/>
		<g>
			<path fill="#739AF0" d="M1373.436,1113.373l35.144-63.358c4.091-7.375,14.445-8.029,19.432-1.228l20.271,27.648
				c4.313,5.882,12.928,6.35,17.852,0.968l0,0c5.109-5.584,14.117-4.834,18.231,1.519l21.875,33.774
				c4.981,7.691-0.539,17.845-9.703,17.845h-112.992C1374.734,1130.541,1369.162,1121.078,1373.436,1113.373z"/>
			<circle fill="#739AF0" cx="1456.618" cy="1020.402" r="13.825"/>
		</g>
	</g>
	<g>
		<path fill="#D4E1FF" d="M1751.01,1156.075l-156.295,21.319c-6.326,0.863-12.153-3.565-13.017-9.892l-21.319-156.295
			c-0.863-6.326,3.565-12.154,9.891-13.017l156.296-21.319c6.325-0.863,12.153,3.565,13.017,9.891l21.319,156.295
			C1761.764,1149.385,1757.336,1155.212,1751.01,1156.075z"/>
		<g>
			<path fill="#739AF0" d="M1601.042,1138.352l26.259-67.528c3.057-7.859,13.229-9.907,19.088-3.842l23.82,24.655
				c5.068,5.245,13.668,4.544,17.819-1.454l0,0c4.308-6.224,13.334-6.697,18.27-0.959l26.238,30.508
				c5.976,6.947,1.878,17.753-7.201,18.991l-111.956,15.271C1604.648,1155.186,1597.85,1146.563,1601.042,1138.352z"/>
			<circle fill="#739AF0" cx="1670.895" cy="1034.991" r="13.825"/>
		</g>
	</g>
	<g>
		<rect x="1200.299" y="1714.813" fill="#F99746" width="91.147" height="78.151"/>
		<rect x="1196.62" y="1711.468" fill="#AEC3FF" width="97.913" height="6.038"/>
		<rect x="1200.299" y="1735.957" fill="#F9DDBF" width="91.147" height="24.824"/>
	</g>
	<path fill="#F99746" d="M1402.344,1793.02h-86.065c-3.151,0-5.705-2.554-5.705-5.705v-9.546c0-3.399,2.955-6.045,6.333-5.67
		l86.066,9.546c2.89,0.32,5.076,2.763,5.076,5.67l0,0C1408.049,1790.466,1405.494,1793.02,1402.344,1793.02z"/>
	<path fill="#2E3552" d="M2606.139,1800.746l-2396.183-0.826c-1.606-0.001-2.92-1.315-2.919-2.922l0-1.496
		c0-1.605,1.315-2.92,2.921-2.919l2396.183,0.826c1.607,0,2.92,1.315,2.92,2.921v1.496
		C2609.06,1799.433,2607.745,1800.746,2606.139,1800.746z"/>
	<g>
		<path fill="#739AF0" d="M1252,1158.31h-9.918c-0.9,0-1.631-0.73-1.631-1.631s0.73-1.631,1.631-1.631h9.851
			c0.9,0,1.665,0.73,1.665,1.631S1252.9,1158.31,1252,1158.31z M1232.23,1158.31h-9.851c-0.9,0-1.631-0.73-1.631-1.631
			s0.73-1.631,1.631-1.631h9.851c0.9,0,1.631,0.73,1.631,1.631S1233.13,1158.31,1232.23,1158.31z M1212.528,1158.31h-9.852
			c-0.9,0-1.63-0.73-1.63-1.631s0.73-1.631,1.63-1.631h9.852c0.9,0,1.631,0.73,1.631,1.631S1213.428,1158.31,1212.528,1158.31z
			 M1192.825,1158.31h-9.851c-0.9,0-1.63-0.73-1.63-1.631s0.73-1.631,1.63-1.631h9.851c0.9,0,1.631,0.73,1.631,1.631
			S1193.726,1158.31,1192.825,1158.31z M1173.123,1158.31h-9.851c-0.9,0-1.63-0.73-1.63-1.631s0.73-1.631,1.63-1.631h9.851
			c0.9,0,1.631,0.73,1.631,1.631S1174.023,1158.31,1173.123,1158.31z M1153.421,1158.31h-9.851c-0.9,0-1.63-0.73-1.63-1.631
			s0.73-1.631,1.63-1.631h9.851c0.9,0,1.631,0.73,1.631,1.631S1154.321,1158.31,1153.421,1158.31z M1133.719,1158.31h-9.852
			c-0.9,0-1.631-0.73-1.631-1.631s0.73-1.631,1.631-1.631h9.852c0.9,0,1.631,0.73,1.631,1.631S1134.619,1158.31,1133.719,1158.31z
			 M1114.016,1158.31h-9.851c-0.9,0-1.631-0.73-1.631-1.631s0.73-1.631,1.631-1.631h9.851c0.9,0,1.63,0.73,1.63,1.631
			S1114.917,1158.31,1114.016,1158.31z M1094.314,1158.31h-9.851c-0.9,0-1.631-0.73-1.631-1.631s0.73-1.631,1.631-1.631h9.851
			c0.9,0,1.63,0.73,1.63,1.631S1095.214,1158.31,1094.314,1158.31z M1074.612,1158.31h-9.851c-0.9,0-1.631-0.73-1.631-1.631
			s0.73-1.631,1.631-1.631h9.851c0.9,0,1.631,0.73,1.631,1.631S1075.512,1158.31,1074.612,1158.31z M1054.91,1158.31h-9.851
			c-0.9,0-1.631-0.73-1.631-1.631s0.73-1.631,1.631-1.631h9.851c0.9,0,1.631,0.73,1.631,1.631S1055.81,1158.31,1054.91,1158.31z
			 M1035.207,1158.31h-9.851c-0.9,0-1.631-0.73-1.631-1.631s0.73-1.631,1.631-1.631h9.851c0.9,0,1.631,0.73,1.631,1.631
			S1036.107,1158.31,1035.207,1158.31z M1015.505,1158.31h-9.851c-0.9,0-1.631-0.73-1.631-1.631s0.73-1.631,1.631-1.631h9.851
			c0.9,0,1.631,0.73,1.631,1.631S1016.405,1158.31,1015.505,1158.31z M995.803,1158.31h-9.851c-0.9,0-1.631-0.73-1.631-1.631
			s0.73-1.631,1.631-1.631h9.851c0.9,0,1.631,0.73,1.631,1.631S996.703,1158.31,995.803,1158.31z M976.101,1158.31h-9.851
			c-0.9,0-1.631-0.73-1.631-1.631s0.73-1.631,1.631-1.631h9.851c0.9,0,1.631,0.73,1.631,1.631S977.001,1158.31,976.101,1158.31z
			 M956.398,1158.31h-9.852c-0.9,0-1.63-0.73-1.63-1.631s0.73-1.631,1.63-1.631h9.852c0.9,0,1.631,0.73,1.631,1.631
			S957.299,1158.31,956.398,1158.31z M936.696,1158.31h-9.851c-0.9,0-1.63-0.73-1.63-1.631s0.73-1.631,1.63-1.631h9.851
			c0.9,0,1.63,0.73,1.63,1.631S937.596,1158.31,936.696,1158.31z M916.994,1158.31h-8.781c-0.394,0-0.785-0.013-1.172-0.038
			c-0.898-0.057-1.581-0.832-1.524-1.73s0.831-1.596,1.731-1.523c0.319,0.02,0.641,0.03,0.965,0.03h8.781
			c0.9,0,1.63,0.73,1.63,1.631S917.894,1158.31,916.994,1158.31z M1261.272,1155.443c-0.522,0-1.035-0.25-1.35-0.714
			c-0.506-0.745-0.313-1.759,0.432-2.266c2.482-1.687,4.384-4.043,5.501-6.813c0.337-0.835,1.286-1.236,2.122-0.903
			c0.835,0.337,1.239,1.287,0.902,2.122c-1.36,3.373-3.674,6.24-6.693,8.292C1261.907,1155.352,1261.587,1155.443,1261.272,1155.443
			z M898.062,1154.855c-0.348,0-0.698-0.11-0.995-0.34c-2.893-2.229-5.031-5.231-6.183-8.68c-0.286-0.854,0.175-1.777,1.03-2.063
			c0.853-0.282,1.777,0.176,2.063,1.03c0.946,2.831,2.703,5.297,5.082,7.131c0.713,0.55,0.846,1.573,0.296,2.286
			C899.033,1154.637,898.55,1154.855,898.062,1154.855z M1268.569,1138.195c-0.9,0-1.631-0.73-1.631-1.631v-9.852
			c0-0.9,0.73-1.631,1.631-1.631s1.631,0.73,1.631,1.631v9.852C1270.2,1137.465,1269.469,1138.195,1268.569,1138.195z
			 M891.576,1137.193c-0.9,0-1.631-0.73-1.631-1.631v-9.852c0-0.9,0.73-1.631,1.631-1.631s1.631,0.73,1.631,1.631v9.852
			C893.207,1136.463,892.476,1137.193,891.576,1137.193z M1268.569,1118.492c-0.9,0-1.631-0.73-1.631-1.631v-9.851
			c0-0.9,0.73-1.631,1.631-1.631s1.631,0.73,1.631,1.631v9.851C1270.2,1117.762,1269.469,1118.492,1268.569,1118.492z
			 M891.576,1117.49c-0.9,0-1.631-0.73-1.631-1.631v-9.851c0-0.9,0.73-1.631,1.631-1.631s1.631,0.73,1.631,1.631v9.851
			C893.207,1116.76,892.476,1117.49,891.576,1117.49z M1268.569,1098.79c-0.9,0-1.631-0.73-1.631-1.631v-9.851
			c0-0.9,0.73-1.631,1.631-1.631s1.631,0.73,1.631,1.631v9.851C1270.2,1098.06,1269.469,1098.79,1268.569,1098.79z
			 M891.576,1097.788c-0.9,0-1.631-0.73-1.631-1.631v-9.851c0-0.9,0.73-1.631,1.631-1.631s1.631,0.73,1.631,1.631v9.851
			C893.207,1097.058,892.476,1097.788,891.576,1097.788z M1268.569,1079.088c-0.9,0-1.631-0.73-1.631-1.631v-9.851
			c0-0.9,0.73-1.631,1.631-1.631s1.631,0.73,1.631,1.631v9.851C1270.2,1078.357,1269.469,1079.088,1268.569,1079.088z
			 M891.576,1078.086c-0.9,0-1.631-0.73-1.631-1.631v-9.851c0-0.9,0.73-1.631,1.631-1.631s1.631,0.73,1.631,1.631v9.851
			C893.207,1077.355,892.476,1078.086,891.576,1078.086z M1268.569,1059.386c-0.9,0-1.631-0.73-1.631-1.631v-9.851
			c0-0.9,0.73-1.631,1.631-1.631s1.631,0.73,1.631,1.631v9.851C1270.2,1058.655,1269.469,1059.386,1268.569,1059.386z
			 M891.576,1058.384c-0.9,0-1.631-0.73-1.631-1.631v-9.851c0-0.9,0.73-1.631,1.631-1.631s1.631,0.73,1.631,1.631v9.851
			C893.207,1057.653,892.476,1058.384,891.576,1058.384z M1268.569,1039.684c-0.9,0-1.631-0.73-1.631-1.631v-9.852
			c0-0.9,0.73-1.631,1.631-1.631s1.631,0.73,1.631,1.631v9.852C1270.2,1038.953,1269.469,1039.684,1268.569,1039.684z
			 M891.576,1038.682c-0.9,0-1.631-0.73-1.631-1.631v-9.852c0-0.9,0.73-1.631,1.631-1.631s1.631,0.73,1.631,1.631v9.852
			C893.207,1037.951,892.476,1038.682,891.576,1038.682z M1268.569,1019.981c-0.9,0-1.631-0.73-1.631-1.631v-9.852
			c0-0.9,0.73-1.631,1.631-1.631s1.631,0.73,1.631,1.631v9.852C1270.2,1019.251,1269.469,1019.981,1268.569,1019.981z
			 M891.576,1018.979c-0.9,0-1.631-0.73-1.631-1.631v-9.852c0-0.9,0.73-1.631,1.631-1.631s1.631,0.73,1.631,1.631v9.852
			C893.207,1018.249,892.476,1018.979,891.576,1018.979z M1268.569,1000.279c-0.9,0-1.631-0.73-1.631-1.631v-9.852
			c0-0.9,0.73-1.63,1.631-1.63s1.631,0.73,1.631,1.63v9.852C1270.2,999.549,1269.469,1000.279,1268.569,1000.279z M891.576,999.277
			c-0.9,0-1.631-0.73-1.631-1.631v-9.851c0-0.9,0.73-1.631,1.631-1.631s1.631,0.73,1.631,1.631v9.851
			C893.207,998.546,892.476,999.277,891.576,999.277z M1268.569,980.577c-0.9,0-1.631-0.73-1.631-1.631v-9.851
			c0-0.9,0.73-1.63,1.631-1.63s1.631,0.73,1.631,1.63v9.851C1270.2,979.846,1269.469,980.577,1268.569,980.577z M891.576,979.575
			c-0.9,0-1.631-0.73-1.631-1.631v-9.851c0-0.9,0.73-1.63,1.631-1.63s1.631,0.73,1.631,1.63v9.851
			C893.207,978.844,892.476,979.575,891.576,979.575z M1268.569,960.875c-0.9,0-1.631-0.73-1.631-1.631v-4.446
			c0-1.639-0.262-3.25-0.78-4.789c-0.287-0.854,0.172-1.778,1.025-2.065c0.854-0.29,1.778,0.171,2.065,1.025
			c0.631,1.875,0.951,3.835,0.951,5.829v4.446C1270.2,960.144,1269.469,960.875,1268.569,960.875z M891.576,959.873
			c-0.9,0-1.631-0.73-1.631-1.631v-3.444c0-2.371,0.449-4.68,1.333-6.862c0.339-0.834,1.29-1.237,2.124-0.898
			c0.834,0.338,1.237,1.289,0.898,2.124c-0.726,1.791-1.094,3.687-1.094,5.636v3.444
			C893.207,959.142,892.476,959.873,891.576,959.873z M1262.054,943.224c-0.347,0-0.696-0.11-0.992-0.337
			c-2.375-1.824-5.208-2.884-8.194-3.067c-0.899-0.055-1.583-0.828-1.528-1.727c0.055-0.899,0.837-1.594,1.727-1.528
			c3.638,0.223,7.089,1.515,9.981,3.735c0.714,0.549,0.849,1.572,0.3,2.287C1263.027,943.004,1262.543,943.224,1262.054,943.224z
			 M898.903,942.639c-0.523,0-1.037-0.251-1.352-0.717c-0.505-0.746-0.309-1.76,0.437-2.264c3.014-2.039,6.536-3.12,10.187-3.127
			c0.001,0,0.002,0,0.003,0c0.899,0,1.629,0.728,1.63,1.627c0.002,0.901-0.727,1.632-1.627,1.634c-3,0.006-5.893,0.894-8.367,2.567
			C899.536,942.548,899.218,942.639,898.903,942.639z M1243.117,939.792h-9.851c-0.9,0-1.631-0.73-1.631-1.631
			s0.73-1.631,1.631-1.631h9.851c0.9,0,1.631,0.73,1.631,1.631S1244.018,939.792,1243.117,939.792z M1223.415,939.792h-9.852
			c-0.9,0-1.63-0.73-1.63-1.631s0.73-1.631,1.63-1.631h9.852c0.9,0,1.631,0.73,1.631,1.631S1224.315,939.792,1223.415,939.792z
			 M1203.712,939.792h-9.851c-0.9,0-1.63-0.73-1.63-1.631s0.73-1.631,1.63-1.631h9.851c0.9,0,1.63,0.73,1.63,1.631
			S1204.613,939.792,1203.712,939.792z M1184.01,939.792h-9.851c-0.9,0-1.63-0.73-1.63-1.631s0.73-1.631,1.63-1.631h9.851
			c0.9,0,1.63,0.73,1.63,1.631S1184.911,939.792,1184.01,939.792z M1164.308,939.792h-9.851c-0.9,0-1.631-0.73-1.631-1.631
			s0.73-1.631,1.631-1.631h9.851c0.9,0,1.63,0.73,1.63,1.631S1165.208,939.792,1164.308,939.792z M1144.606,939.792h-9.851
			c-0.9,0-1.631-0.73-1.631-1.631s0.73-1.631,1.631-1.631h9.851c0.9,0,1.63,0.73,1.63,1.631S1145.506,939.792,1144.606,939.792z
			 M1124.903,939.792h-9.851c-0.9,0-1.631-0.73-1.631-1.631s0.73-1.631,1.631-1.631h9.851c0.9,0,1.631,0.73,1.631,1.631
			S1125.804,939.792,1124.903,939.792z M1105.201,939.792h-9.851c-0.9,0-1.631-0.73-1.631-1.631s0.73-1.631,1.631-1.631h9.851
			c0.9,0,1.631,0.73,1.631,1.631S1106.102,939.792,1105.201,939.792z M1085.499,939.792h-9.851c-0.9,0-1.631-0.73-1.631-1.631
			s0.73-1.631,1.631-1.631h9.851c0.9,0,1.631,0.73,1.631,1.631S1086.399,939.792,1085.499,939.792z M1065.797,939.792h-9.851
			c-0.9,0-1.631-0.73-1.631-1.631s0.73-1.631,1.631-1.631h9.851c0.9,0,1.631,0.73,1.631,1.631S1066.697,939.792,1065.797,939.792z
			 M1046.095,939.792h-9.852c-0.9,0-1.631-0.73-1.631-1.631s0.73-1.631,1.631-1.631h9.852c0.9,0,1.631,0.73,1.631,1.631
			S1046.995,939.792,1046.095,939.792z M1026.392,939.792h-9.851c-0.9,0-1.631-0.73-1.631-1.631s0.73-1.631,1.631-1.631h9.851
			c0.9,0,1.631,0.73,1.631,1.631S1027.292,939.792,1026.392,939.792z M1006.69,939.792h-9.851c-0.9,0-1.63-0.73-1.63-1.631
			s0.73-1.631,1.63-1.631h9.851c0.9,0,1.631,0.73,1.631,1.631S1007.59,939.792,1006.69,939.792z M986.988,939.792h-9.851
			c-0.9,0-1.63-0.73-1.63-1.631s0.73-1.631,1.63-1.631h9.851c0.9,0,1.631,0.73,1.631,1.631S987.888,939.792,986.988,939.792z
			 M967.286,939.792h-9.852c-0.9,0-1.631-0.73-1.631-1.631s0.73-1.631,1.631-1.631h9.852c0.9,0,1.631,0.73,1.631,1.631
			S968.186,939.792,967.286,939.792z M947.583,939.792h-9.851c-0.9,0-1.631-0.73-1.631-1.631s0.73-1.631,1.631-1.631h9.851
			c0.9,0,1.63,0.73,1.63,1.631S948.483,939.792,947.583,939.792z M927.881,939.792h-9.851c-0.9,0-1.631-0.73-1.631-1.631
			s0.73-1.631,1.631-1.631h9.851c0.9,0,1.63,0.73,1.63,1.631S928.781,939.792,927.881,939.792z"/>
	</g>
	<g>
		<path fill="#739AF0" d="M1811.991,1431.707h-8.792c-0.798,0-1.444-0.646-1.444-1.444s0.646-1.444,1.444-1.444h8.727
			c0.798,0,1.478,0.646,1.478,1.444S1812.789,1431.707,1811.991,1431.707z M1794.473,1431.707h-8.728
			c-0.798,0-1.444-0.646-1.444-1.444s0.646-1.444,1.444-1.444h8.728c0.798,0,1.444,0.646,1.444,1.444
			S1795.271,1431.707,1794.473,1431.707z M1777.019,1431.707h-8.727c-0.798,0-1.444-0.646-1.444-1.444s0.646-1.444,1.444-1.444
			h8.727c0.798,0,1.444,0.646,1.444,1.444S1777.816,1431.707,1777.019,1431.707z M1759.565,1431.707h-8.727
			c-0.798,0-1.444-0.646-1.444-1.444s0.646-1.444,1.444-1.444h8.727c0.798,0,1.444,0.646,1.444,1.444
			S1760.363,1431.707,1759.565,1431.707z M1742.111,1431.707h-8.727c-0.798,0-1.444-0.646-1.444-1.444s0.646-1.444,1.444-1.444
			h8.727c0.798,0,1.444,0.646,1.444,1.444S1742.909,1431.707,1742.111,1431.707z M1724.658,1431.707h-8.727
			c-0.798,0-1.444-0.646-1.444-1.444s0.646-1.444,1.444-1.444h8.727c0.798,0,1.444,0.646,1.444,1.444
			S1725.456,1431.707,1724.658,1431.707z M1707.205,1431.707h-8.727c-0.798,0-1.444-0.646-1.444-1.444s0.646-1.444,1.444-1.444
			h8.727c0.798,0,1.444,0.646,1.444,1.444S1708.003,1431.707,1707.205,1431.707z M1689.751,1431.707h-8.727
			c-0.798,0-1.444-0.646-1.444-1.444s0.646-1.444,1.444-1.444h8.727c0.798,0,1.444,0.646,1.444,1.444
			S1690.549,1431.707,1689.751,1431.707z M1672.298,1431.707h-8.727c-0.798,0-1.444-0.646-1.444-1.444s0.646-1.444,1.444-1.444
			h8.727c0.798,0,1.444,0.646,1.444,1.444S1673.096,1431.707,1672.298,1431.707z M1654.845,1431.707h-8.428
			c-0.125,0-0.248-0.003-0.37-0.009c-0.797-0.04-1.411-0.718-1.372-1.515c0.04-0.796,0.688-1.396,1.515-1.372
			c0.075,0.004,0.151,0.007,0.228,0.007h8.428c0.798,0,1.444,0.646,1.444,1.444S1655.643,1431.707,1654.845,1431.707z
			 M1817.636,1426.178c-0.016,0-0.031,0-0.048,0c-0.797-0.026-1.423-0.693-1.397-1.491l0.003-0.137v-8.543
			c0-0.798,0.646-1.444,1.444-1.444s1.444,0.646,1.444,1.444l-0.003,8.773C1819.054,1425.562,1818.412,1426.178,1817.636,1426.178z
			 M1640.705,1425.944c-0.798,0-1.444-0.646-1.444-1.444v-8.727c0-0.798,0.646-1.444,1.444-1.444s1.444,0.646,1.444,1.444v8.727
			C1642.149,1425.298,1641.503,1425.944,1640.705,1425.944z M1817.638,1408.725c-0.798,0-1.444-0.646-1.444-1.444v-8.727
			c0-0.798,0.646-1.444,1.444-1.444s1.444,0.646,1.444,1.444v8.727C1819.082,1408.078,1818.436,1408.725,1817.638,1408.725z
			 M1640.705,1408.491c-0.798,0-1.444-0.646-1.444-1.444v-8.728c0-0.798,0.646-1.444,1.444-1.444s1.444,0.646,1.444,1.444v8.728
			C1642.149,1407.845,1641.503,1408.491,1640.705,1408.491z M1817.638,1391.271c-0.798,0-1.444-0.646-1.444-1.444v-8.727
			c0-0.798,0.646-1.444,1.444-1.444s1.444,0.646,1.444,1.444v8.727C1819.082,1390.624,1818.436,1391.271,1817.638,1391.271z
			 M1640.705,1391.037c-0.798,0-1.444-0.646-1.444-1.444v-8.51c0-0.092,0.001-0.184,0.005-0.275
			c0.032-0.797,0.674-1.426,1.502-1.385c0.797,0.032,1.417,0.705,1.385,1.502l-0.003,0.158v8.51
			C1642.149,1390.391,1641.503,1391.037,1640.705,1391.037z M1812.193,1376.82c-0.021,0-0.043,0-0.064-0.001l-0.203-0.005h-8.46
			c-0.798,0-1.444-0.646-1.444-1.444s0.646-1.444,1.444-1.444h8.46c0.11,0,0.22,0.002,0.33,0.007c0.797,0.035,1.415,0.71,1.38,1.507
			C1813.602,1376.215,1812.962,1376.82,1812.193,1376.82z M1794.738,1376.814h-8.727c-0.798,0-1.444-0.646-1.444-1.444
			s0.646-1.444,1.444-1.444h8.727c0.798,0,1.444,0.646,1.444,1.444S1795.536,1376.814,1794.738,1376.814z M1777.285,1376.814h-8.727
			c-0.798,0-1.444-0.646-1.444-1.444s0.646-1.444,1.444-1.444h8.727c0.798,0,1.444,0.646,1.444,1.444
			S1778.083,1376.814,1777.285,1376.814z M1759.832,1376.814h-8.727c-0.798,0-1.444-0.646-1.444-1.444s0.646-1.444,1.444-1.444
			h8.727c0.798,0,1.444,0.646,1.444,1.444S1760.63,1376.814,1759.832,1376.814z M1742.378,1376.814h-8.727
			c-0.798,0-1.444-0.646-1.444-1.444s0.646-1.444,1.444-1.444h8.727c0.798,0,1.444,0.646,1.444,1.444
			S1743.176,1376.814,1742.378,1376.814z M1724.925,1376.814h-8.727c-0.798,0-1.444-0.646-1.444-1.444s0.646-1.444,1.444-1.444
			h8.727c0.798,0,1.444,0.646,1.444,1.444S1725.723,1376.814,1724.925,1376.814z M1707.472,1376.814h-8.728
			c-0.798,0-1.444-0.646-1.444-1.444s0.646-1.444,1.444-1.444h8.728c0.798,0,1.444,0.646,1.444,1.444
			S1708.27,1376.814,1707.472,1376.814z M1690.018,1376.814h-8.727c-0.798,0-1.444-0.646-1.444-1.444s0.646-1.444,1.444-1.444h8.727
			c0.798,0,1.444,0.646,1.444,1.444S1690.815,1376.814,1690.018,1376.814z M1672.564,1376.814h-8.727
			c-0.798,0-1.444-0.646-1.444-1.444s0.646-1.444,1.444-1.444h8.727c0.798,0,1.444,0.646,1.444,1.444
			S1673.362,1376.814,1672.564,1376.814z M1655.11,1376.814h-8.693c-0.798,0-1.461-0.646-1.461-1.444s0.63-1.444,1.428-1.444h8.727
			c0.798,0,1.444,0.646,1.444,1.444S1655.908,1376.814,1655.11,1376.814z"/>
	</g>
	<g>
		<path fill="#739AF0" d="M1188.659,910.913h-9.717c-0.9,0-1.631-0.73-1.631-1.631s0.73-1.631,1.631-1.631h9.657
			c0.9,0,1.661,0.73,1.661,1.631S1189.559,910.913,1188.659,910.913z M1169.285,910.913h-9.657c-0.9,0-1.631-0.73-1.631-1.631
			s0.73-1.631,1.631-1.631h9.657c0.9,0,1.631,0.73,1.631,1.631S1170.186,910.913,1169.285,910.913z M1149.971,910.913h-9.657
			c-0.9,0-1.631-0.73-1.631-1.631s0.73-1.631,1.631-1.631h9.657c0.9,0,1.631,0.73,1.631,1.631S1150.872,910.913,1149.971,910.913z
			 M1130.658,910.913h-9.657c-0.9,0-1.631-0.73-1.631-1.631s0.73-1.631,1.631-1.631h9.657c0.9,0,1.631,0.73,1.631,1.631
			S1131.558,910.913,1130.658,910.913z M1111.344,910.913h-9.657c-0.9,0-1.631-0.73-1.631-1.631s0.73-1.631,1.631-1.631h9.657
			c0.9,0,1.631,0.73,1.631,1.631S1112.245,910.913,1111.344,910.913z M1092.031,910.913h-9.657c-0.9,0-1.631-0.73-1.631-1.631
			s0.73-1.631,1.631-1.631h9.657c0.9,0,1.631,0.73,1.631,1.631S1092.931,910.913,1092.031,910.913z M1072.717,910.913h-9.657
			c-0.9,0-1.631-0.73-1.631-1.631s0.73-1.631,1.631-1.631h9.657c0.9,0,1.631,0.73,1.631,1.631S1073.617,910.913,1072.717,910.913z
			 M1053.583,909.874c-0.272,0-0.549-0.068-0.803-0.212c-3.021-1.713-4.897-4.933-4.897-8.402v-1.184c0-0.9,0.73-1.631,1.631-1.631
			s1.631,0.73,1.631,1.631v1.184c0,2.297,1.243,4.43,3.244,5.564c0.784,0.444,1.059,1.439,0.614,2.223
			C1054.703,909.576,1054.151,909.874,1053.583,909.874z M1196.108,905.717c-0.19,0-0.384-0.034-0.574-0.104
			c-0.843-0.317-1.269-1.257-0.952-2.101c0.271-0.718,0.407-1.476,0.407-2.252v-6.769c0-0.9,0.73-1.631,1.631-1.631
			s1.631,0.73,1.631,1.631v6.769c0,1.169-0.208,2.313-0.616,3.4C1197.389,905.314,1196.768,905.717,1196.108,905.717z
			 M1049.514,892.05c-0.9,0-1.631-0.73-1.631-1.631v-9.657c0-0.9,0.73-1.631,1.631-1.631s1.631,0.73,1.631,1.631v9.657
			C1051.145,891.319,1050.415,892.05,1049.514,892.05z M1196.62,886.465c-0.9,0-1.631-0.73-1.631-1.631v-9.657
			c0-0.9,0.73-1.631,1.631-1.631s1.631,0.73,1.631,1.631v9.657C1198.251,885.734,1197.521,886.465,1196.62,886.465z
			 M1049.514,872.736c-0.9,0-1.631-0.73-1.631-1.631v-9.657c0-0.9,0.73-1.631,1.631-1.631s1.631,0.73,1.631,1.631v9.657
			C1051.145,872.006,1050.415,872.736,1049.514,872.736z M1196.62,867.151c-0.9,0-1.631-0.73-1.631-1.631v-9.657
			c0-0.9,0.73-1.631,1.631-1.631s1.631,0.73,1.631,1.631v9.657C1198.251,866.421,1197.521,867.151,1196.62,867.151z
			 M1049.514,853.422c-0.9,0-1.631-0.73-1.631-1.631v-9.657c0-0.9,0.73-1.631,1.631-1.631s1.631,0.73,1.631,1.631v9.657
			C1051.145,852.692,1050.415,853.422,1049.514,853.422z M1196.62,847.837c-0.9,0-1.631-0.73-1.631-1.631v-9.657
			c0-0.9,0.73-1.631,1.631-1.631s1.631,0.73,1.631,1.631v9.657C1198.251,847.107,1197.521,847.837,1196.62,847.837z
			 M1049.514,834.109c-0.9,0-1.631-0.73-1.631-1.631v-9.657c0-0.9,0.73-1.631,1.631-1.631s1.631,0.73,1.631,1.631v9.657
			C1051.145,833.378,1050.415,834.109,1049.514,834.109z M1196.62,828.524c-0.9,0-1.631-0.73-1.631-1.631v-9.657
			c0-0.9,0.73-1.631,1.631-1.631s1.631,0.73,1.631,1.631v9.657C1198.251,827.793,1197.521,828.524,1196.62,828.524z
			 M1049.514,814.795c-0.9,0-1.631-0.73-1.631-1.631v-9.657c0-0.9,0.73-1.631,1.631-1.631s1.631,0.73,1.631,1.631v9.657
			C1051.145,814.065,1050.415,814.795,1049.514,814.795z M1196.62,809.21c-0.9,0-1.631-0.73-1.631-1.631v-9.657
			c0-0.9,0.73-1.631,1.631-1.631s1.631,0.73,1.631,1.631v9.657C1198.251,808.48,1197.521,809.21,1196.62,809.21z M1049.514,795.481
			c-0.9,0-1.631-0.73-1.631-1.631v-6.739c0-1.182,0.212-2.337,0.629-3.434c0.32-0.84,1.261-1.264,2.104-0.944
			c0.841,0.32,1.264,1.262,0.944,2.104c-0.276,0.725-0.416,1.49-0.416,2.274v6.739
			C1051.145,794.751,1050.415,795.481,1049.514,795.481z M1196.62,789.897c-0.9,0-1.631-0.73-1.631-1.631v-1.154
			c0-2.307-1.251-4.444-3.265-5.576c-0.785-0.441-1.063-1.436-0.622-2.221c0.441-0.785,1.435-1.063,2.221-0.622
			c3.04,1.709,4.928,4.935,4.928,8.419v1.154C1198.251,789.167,1197.521,789.897,1196.62,789.897z M1183.044,780.721h-9.657
			c-0.9,0-1.631-0.73-1.631-1.631s0.73-1.631,1.631-1.631h9.657c0.9,0,1.631,0.73,1.631,1.631S1183.945,780.721,1183.044,780.721z
			 M1163.73,780.721h-9.657c-0.9,0-1.631-0.73-1.631-1.631s0.73-1.631,1.631-1.631h9.657c0.9,0,1.631,0.73,1.631,1.631
			S1164.631,780.721,1163.73,780.721z M1144.417,780.721h-9.657c-0.9,0-1.631-0.73-1.631-1.631s0.73-1.631,1.631-1.631h9.657
			c0.9,0,1.631,0.73,1.631,1.631S1145.317,780.721,1144.417,780.721z M1125.104,780.721h-9.657c-0.9,0-1.631-0.73-1.631-1.631
			s0.73-1.631,1.631-1.631h9.657c0.9,0,1.631,0.73,1.631,1.631S1126.004,780.721,1125.104,780.721z M1105.79,780.721h-9.657
			c-0.9,0-1.631-0.73-1.631-1.631s0.73-1.631,1.631-1.631h9.657c0.9,0,1.631,0.73,1.631,1.631S1106.69,780.721,1105.79,780.721z
			 M1086.476,780.721h-9.657c-0.9,0-1.631-0.73-1.631-1.631s0.73-1.631,1.631-1.631h9.657c0.9,0,1.631,0.73,1.631,1.631
			S1087.376,780.721,1086.476,780.721z M1067.163,780.721h-9.626c-0.9,0-1.646-0.73-1.646-1.631s0.715-1.631,1.616-1.631h9.657
			c0.9,0,1.631,0.73,1.631,1.631S1068.063,780.721,1067.163,780.721z"/>
	</g>
	<g>
		<path fill="#739AF0" d="M1811.991,1512.248h-8.792c-0.798,0-1.444-0.646-1.444-1.444s0.646-1.444,1.444-1.444h8.727
			c0.798,0,1.478,0.646,1.478,1.444S1812.789,1512.248,1811.991,1512.248z M1794.473,1512.248h-8.728
			c-0.798,0-1.444-0.646-1.444-1.444s0.646-1.444,1.444-1.444h8.728c0.798,0,1.444,0.646,1.444,1.444
			S1795.271,1512.248,1794.473,1512.248z M1777.019,1512.248h-8.727c-0.798,0-1.444-0.646-1.444-1.444s0.646-1.444,1.444-1.444
			h8.727c0.798,0,1.444,0.646,1.444,1.444S1777.816,1512.248,1777.019,1512.248z M1759.565,1512.248h-8.727
			c-0.798,0-1.444-0.646-1.444-1.444s0.646-1.444,1.444-1.444h8.727c0.798,0,1.444,0.646,1.444,1.444
			S1760.363,1512.248,1759.565,1512.248z M1742.111,1512.248h-8.727c-0.798,0-1.444-0.646-1.444-1.444s0.646-1.444,1.444-1.444
			h8.727c0.798,0,1.444,0.646,1.444,1.444S1742.909,1512.248,1742.111,1512.248z M1724.658,1512.248h-8.727
			c-0.798,0-1.444-0.646-1.444-1.444s0.646-1.444,1.444-1.444h8.727c0.798,0,1.444,0.646,1.444,1.444
			S1725.456,1512.248,1724.658,1512.248z M1707.205,1512.248h-8.727c-0.798,0-1.444-0.646-1.444-1.444s0.646-1.444,1.444-1.444
			h8.727c0.798,0,1.444,0.646,1.444,1.444S1708.003,1512.248,1707.205,1512.248z M1689.751,1512.248h-8.727
			c-0.798,0-1.444-0.646-1.444-1.444s0.646-1.444,1.444-1.444h8.727c0.798,0,1.444,0.646,1.444,1.444
			S1690.549,1512.248,1689.751,1512.248z M1672.298,1512.248h-8.727c-0.798,0-1.444-0.646-1.444-1.444s0.646-1.444,1.444-1.444
			h8.727c0.798,0,1.444,0.646,1.444,1.444S1673.096,1512.248,1672.298,1512.248z M1654.845,1512.248h-8.428
			c-0.125,0-0.248-0.003-0.37-0.009c-0.797-0.04-1.411-0.718-1.372-1.515c0.04-0.796,0.688-1.42,1.515-1.372
			c0.075,0.004,0.151,0.007,0.228,0.007h8.428c0.798,0,1.444,0.646,1.444,1.444S1655.643,1512.248,1654.845,1512.248z
			 M1817.636,1506.719c-0.016,0-0.031,0-0.048,0c-0.797-0.026-1.423-0.693-1.397-1.491l0.003-0.137v-8.543
			c0-0.798,0.646-1.444,1.444-1.444s1.444,0.646,1.444,1.444l-0.003,8.773C1819.054,1506.103,1818.412,1506.719,1817.636,1506.719z
			 M1640.705,1506.485c-0.798,0-1.444-0.646-1.444-1.444v-8.727c0-0.798,0.646-1.444,1.444-1.444s1.444,0.646,1.444,1.444v8.727
			C1642.149,1505.839,1641.503,1506.485,1640.705,1506.485z M1817.638,1489.266c-0.798,0-1.444-0.646-1.444-1.444v-8.727
			c0-0.798,0.646-1.444,1.444-1.444s1.444,0.646,1.444,1.444v8.727C1819.082,1488.619,1818.436,1489.266,1817.638,1489.266z
			 M1640.705,1489.032c-0.798,0-1.444-0.646-1.444-1.444v-8.728c0-0.798,0.646-1.444,1.444-1.444s1.444,0.646,1.444,1.444v8.728
			C1642.149,1488.386,1641.503,1489.032,1640.705,1489.032z M1817.638,1471.812c-0.798,0-1.444-0.646-1.444-1.444v-8.727
			c0-0.798,0.646-1.444,1.444-1.444s1.444,0.646,1.444,1.444v8.727C1819.082,1471.165,1818.436,1471.812,1817.638,1471.812z
			 M1640.705,1471.578c-0.798,0-1.444-0.646-1.444-1.444v-8.51c0-0.092,0.001-0.184,0.005-0.275
			c0.032-0.797,0.674-1.423,1.502-1.385c0.797,0.032,1.417,0.705,1.385,1.502l-0.003,0.158v8.51
			C1642.149,1470.932,1641.503,1471.578,1640.705,1471.578z M1812.193,1457.361c-0.021,0-0.043,0-0.064-0.001l-0.203-0.005h-8.46
			c-0.798,0-1.444-0.646-1.444-1.444s0.646-1.444,1.444-1.444h8.46c0.11,0,0.22,0.002,0.33,0.007c0.797,0.035,1.415,0.71,1.38,1.507
			C1813.602,1456.756,1812.962,1457.361,1812.193,1457.361z M1794.738,1457.355h-8.727c-0.798,0-1.444-0.646-1.444-1.444
			s0.646-1.444,1.444-1.444h8.727c0.798,0,1.444,0.646,1.444,1.444S1795.536,1457.355,1794.738,1457.355z M1777.285,1457.355h-8.727
			c-0.798,0-1.444-0.646-1.444-1.444s0.646-1.444,1.444-1.444h8.727c0.798,0,1.444,0.646,1.444,1.444
			S1778.083,1457.355,1777.285,1457.355z M1759.832,1457.355h-8.727c-0.798,0-1.444-0.646-1.444-1.444s0.646-1.444,1.444-1.444
			h8.727c0.798,0,1.444,0.646,1.444,1.444S1760.63,1457.355,1759.832,1457.355z M1742.378,1457.355h-8.727
			c-0.798,0-1.444-0.646-1.444-1.444s0.646-1.444,1.444-1.444h8.727c0.798,0,1.444,0.646,1.444,1.444
			S1743.176,1457.355,1742.378,1457.355z M1724.925,1457.355h-8.727c-0.798,0-1.444-0.646-1.444-1.444s0.646-1.444,1.444-1.444
			h8.727c0.798,0,1.444,0.646,1.444,1.444S1725.723,1457.355,1724.925,1457.355z M1707.472,1457.355h-8.728
			c-0.798,0-1.444-0.646-1.444-1.444s0.646-1.444,1.444-1.444h8.728c0.798,0,1.444,0.646,1.444,1.444
			S1708.27,1457.355,1707.472,1457.355z M1690.018,1457.355h-8.727c-0.798,0-1.444-0.646-1.444-1.444s0.646-1.444,1.444-1.444h8.727
			c0.798,0,1.444,0.646,1.444,1.444S1690.815,1457.355,1690.018,1457.355z M1672.564,1457.355h-8.727
			c-0.798,0-1.444-0.646-1.444-1.444s0.646-1.444,1.444-1.444h8.727c0.798,0,1.444,0.646,1.444,1.444
			S1673.362,1457.355,1672.564,1457.355z M1655.11,1457.355h-8.693c-0.798,0-1.461-0.646-1.461-1.444s0.63-1.444,1.428-1.444h8.727
			c0.798,0,1.444,0.646,1.444,1.444S1655.908,1457.355,1655.11,1457.355z"/>
	</g>
	<g>
		<path fill="#739AF0" d="M1123.3,1451.57h-8.711c-0.798,0-1.445-0.646-1.445-1.444s0.647-1.444,1.445-1.444h8.651
			c0.798,0,1.475,0.646,1.475,1.444S1124.098,1451.57,1123.3,1451.57z M1105.938,1451.57h-8.651c-0.798,0-1.445-0.646-1.445-1.444
			s0.647-1.444,1.445-1.444h8.651c0.798,0,1.445,0.646,1.445,1.444S1106.736,1451.57,1105.938,1451.57z M1088.635,1451.57h-8.651
			c-0.798,0-1.445-0.646-1.445-1.444s0.647-1.444,1.445-1.444h8.651c0.798,0,1.445,0.646,1.445,1.444
			S1089.433,1451.57,1088.635,1451.57z M1071.332,1451.57h-8.651c-0.798,0-1.445-0.646-1.445-1.444s0.647-1.444,1.445-1.444h8.651
			c0.798,0,1.445,0.646,1.445,1.444S1072.13,1451.57,1071.332,1451.57z M1054.029,1451.57h-8.651c-0.798,0-1.445-0.646-1.445-1.444
			s0.647-1.444,1.445-1.444h8.651c0.798,0,1.445,0.646,1.445,1.444S1054.827,1451.57,1054.029,1451.57z M1036.727,1451.57h-8.651
			c-0.798,0-1.445-0.646-1.445-1.444s0.647-1.444,1.445-1.444h8.651c0.798,0,1.445,0.646,1.445,1.444
			S1037.524,1451.57,1036.727,1451.57z M1019.424,1451.57h-8.651c-0.798,0-1.445-0.646-1.445-1.444s0.647-1.444,1.445-1.444h8.651
			c0.798,0,1.445,0.646,1.445,1.444S1020.222,1451.57,1019.424,1451.57z M1002.121,1451.57h-8.651c-0.798,0-1.445-0.646-1.445-1.444
			s0.647-1.444,1.445-1.444h8.651c0.798,0,1.445,0.646,1.445,1.444S1002.919,1451.57,1002.121,1451.57z M984.818,1451.57h-8.652
			c-0.798,0-1.445-0.646-1.445-1.444s0.647-1.444,1.445-1.444h8.652c0.798,0,1.445,0.646,1.445,1.444
			S985.616,1451.57,984.818,1451.57z M967.515,1451.57h-8.651c-0.798,0-1.445-0.646-1.445-1.444s0.647-1.444,1.445-1.444h8.651
			c0.798,0,1.445,0.646,1.445,1.444S968.313,1451.57,967.515,1451.57z M950.212,1451.57h-8.651c-0.798,0-1.445-0.646-1.445-1.444
			s0.647-1.444,1.445-1.444h8.651c0.798,0,1.445,0.646,1.445,1.444S951.01,1451.57,950.212,1451.57z M932.91,1451.57h-8.651
			c-0.798,0-1.445-0.646-1.445-1.444s0.647-1.444,1.445-1.444h8.651c0.798,0,1.445,0.646,1.445,1.444
			S933.708,1451.57,932.91,1451.57z M915.607,1451.57h-8.651c-0.798,0-1.445-0.646-1.445-1.444s0.647-1.444,1.445-1.444h8.651
			c0.798,0,1.445,0.646,1.445,1.444S916.405,1451.57,915.607,1451.57z M898.304,1451.57h-8.651c-0.798,0-1.445-0.646-1.445-1.444
			s0.647-1.444,1.445-1.444h8.651c0.798,0,1.445,0.646,1.445,1.444S899.102,1451.57,898.304,1451.57z M881.001,1451.57h-8.651
			c-0.798,0-1.445-0.646-1.445-1.444s0.647-1.444,1.445-1.444h8.651c0.798,0,1.445,0.646,1.445,1.444
			S881.799,1451.57,881.001,1451.57z M863.698,1451.57h-6.906c-0.64,0-1.283-0.037-1.91-0.111c-0.792-0.094-1.359-0.812-1.265-1.604
			c0.093-0.793,0.813-1.362,1.604-1.266c0.515,0.061,1.043,0.092,1.571,0.092h6.906c0.798,0,1.445,0.646,1.445,1.444
			S864.496,1451.57,863.698,1451.57z M1131.452,1449.075c-0.465,0-0.922-0.225-1.201-0.64c-0.445-0.662-0.269-1.56,0.394-2.005
			c2.186-1.468,3.873-3.524,4.88-5.948c0.307-0.737,1.152-1.084,1.888-0.779c0.737,0.306,1.086,1.151,0.78,1.889
			c-1.226,2.949-3.278,5.452-5.937,7.237C1132.009,1448.995,1131.729,1449.075,1131.452,1449.075z M847.239,1448.057
			c-0.332,0-0.664-0.113-0.936-0.345c-2.441-2.079-4.196-4.8-5.074-7.867c-0.219-0.768,0.225-1.567,0.992-1.786
			c0.769-0.222,1.567,0.224,1.787,0.991c0.72,2.519,2.162,4.754,4.168,6.463c0.608,0.518,0.681,1.429,0.163,2.036
			C848.053,1447.885,847.647,1448.057,847.239,1448.057z M1137.981,1433.979c-0.798,0-1.445-0.646-1.445-1.444v-8.651
			c0-0.798,0.647-1.444,1.445-1.444s1.445,0.646,1.445,1.444v8.651C1139.426,1433.333,1138.779,1433.979,1137.981,1433.979z
			 M842.052,1432.293c-0.798,0-1.445-0.646-1.445-1.444v-8.651c0-0.798,0.647-1.444,1.445-1.444s1.445,0.646,1.445,1.444v8.651
			C843.497,1431.646,842.85,1432.293,842.052,1432.293z M1137.981,1416.677c-0.798,0-1.445-0.646-1.445-1.444v-8.651
			c0-0.798,0.647-1.444,1.445-1.444s1.445,0.646,1.445,1.444v8.651C1139.426,1416.03,1138.779,1416.677,1137.981,1416.677z
			 M842.052,1414.99c-0.798,0-1.445-0.646-1.445-1.444v-8.651c0-0.798,0.647-1.444,1.445-1.444s1.445,0.646,1.445,1.444v8.651
			C843.497,1414.344,842.85,1414.99,842.052,1414.99z M1137.981,1399.374c-0.798,0-1.445-0.646-1.445-1.444v-8.651
			c0-0.798,0.647-1.444,1.445-1.444s1.445,0.646,1.445,1.444v8.651C1139.426,1398.728,1138.779,1399.374,1137.981,1399.374z
			 M842.052,1397.688c-0.798,0-1.445-0.646-1.445-1.444v-8.651c0-0.798,0.647-1.444,1.445-1.444s1.445,0.646,1.445,1.444v8.651
			C843.497,1397.041,842.85,1397.688,842.052,1397.688z M1137.981,1382.071c-0.798,0-1.445-0.646-1.445-1.444v-8.652
			c0-0.798,0.647-1.444,1.445-1.444s1.445,0.646,1.445,1.444v8.652C1139.426,1381.425,1138.779,1382.071,1137.981,1382.071z
			 M842.052,1380.385c-0.798,0-1.445-0.646-1.445-1.444v-8.651c0-0.798,0.647-1.444,1.445-1.444s1.445,0.646,1.445,1.444v8.651
			C843.497,1379.738,842.85,1380.385,842.052,1380.385z M1137.981,1364.768c-0.798,0-1.445-0.646-1.445-1.444v-8.651
			c0-0.798,0.647-1.444,1.445-1.444s1.445,0.646,1.445,1.444v8.651C1139.426,1364.121,1138.779,1364.768,1137.981,1364.768z
			 M842.052,1363.082c-0.798,0-1.445-0.646-1.445-1.444v-8.651c0-0.798,0.647-1.444,1.445-1.444s1.445,0.646,1.445,1.444v8.651
			C843.497,1362.436,842.85,1363.082,842.052,1363.082z M1137.981,1347.465c-0.798,0-1.445-0.646-1.445-1.444v-8.651
			c0-0.798,0.647-1.444,1.445-1.444s1.445,0.646,1.445,1.444v8.651C1139.426,1346.818,1138.779,1347.465,1137.981,1347.465z
			 M842.052,1345.779c-0.798,0-1.445-0.646-1.445-1.444v-8.651c0-0.798,0.647-1.444,1.445-1.444s1.445,0.646,1.445,1.444v8.651
			C843.497,1345.133,842.85,1345.779,842.052,1345.779z M1137.981,1330.162c-0.798,0-1.445-0.646-1.445-1.444v-8.651
			c0-0.798,0.647-1.444,1.445-1.444s1.445,0.646,1.445,1.444v8.651C1139.426,1329.516,1138.779,1330.162,1137.981,1330.162z
			 M842.052,1328.477c-0.798,0-1.445-0.646-1.445-1.444v-8.651c0-0.798,0.647-1.444,1.445-1.444s1.445,0.646,1.445,1.444v8.651
			C843.497,1327.83,842.85,1328.477,842.052,1328.477z M1137.981,1312.859c-0.798,0-1.445-0.646-1.445-1.444v-8.651
			c0-0.798,0.647-1.444,1.445-1.444s1.445,0.646,1.445,1.444v8.651C1139.426,1312.213,1138.779,1312.859,1137.981,1312.859z
			 M842.052,1311.174c-0.798,0-1.445-0.646-1.445-1.444v-8.651c0-0.798,0.647-1.444,1.445-1.444s1.445,0.646,1.445,1.444v8.651
			C843.497,1310.527,842.85,1311.174,842.052,1311.174z M1137.981,1295.557c-0.798,0-1.445-0.646-1.445-1.444v-8.651
			c0-0.798,0.647-1.444,1.445-1.444s1.445,0.646,1.445,1.444v8.651C1139.426,1294.91,1138.779,1295.557,1137.981,1295.557z
			 M842.052,1293.871c-0.798,0-1.445-0.646-1.445-1.444v-8.651c0-0.798,0.647-1.444,1.445-1.444s1.445,0.646,1.445,1.444v8.651
			C843.497,1293.225,842.85,1293.871,842.052,1293.871z M1137.981,1278.254c-0.798,0-1.445-0.646-1.445-1.444v-8.651
			c0-0.798,0.647-1.444,1.445-1.444s1.445,0.646,1.445,1.444v8.651C1139.426,1277.607,1138.779,1278.254,1137.981,1278.254z
			 M842.052,1276.567c-0.798,0-1.445-0.646-1.445-1.444v-8.651c0-0.798,0.647-1.444,1.445-1.444s1.445,0.646,1.445,1.444v8.651
			C843.497,1275.921,842.85,1276.567,842.052,1276.567z M1137.981,1260.951c-0.798,0-1.445-0.646-1.445-1.444v-8.651
			c0-0.798,0.647-1.444,1.445-1.444s1.445,0.646,1.445,1.444v8.651C1139.426,1260.305,1138.779,1260.951,1137.981,1260.951z
			 M842.052,1259.265c-0.798,0-1.445-0.646-1.445-1.444v-8.651c0-0.798,0.647-1.444,1.445-1.444s1.445,0.646,1.445,1.444v8.651
			C843.497,1258.618,842.85,1259.265,842.052,1259.265z M1137.407,1243.703c-0.627,0-1.205-0.412-1.388-1.045
			c-0.726-2.517-2.172-4.749-4.182-6.454c-0.608-0.516-0.683-1.428-0.167-2.036c0.517-0.609,1.429-0.683,2.036-0.167
			c2.446,2.074,4.206,4.791,5.089,7.856c0.221,0.767-0.221,1.567-0.988,1.788
			C1137.674,1243.685,1137.539,1243.703,1137.407,1243.703z M843.186,1242.114c-0.186,0-0.375-0.036-0.557-0.112
			c-0.736-0.308-1.083-1.153-0.776-1.89c1.231-2.947,3.289-5.445,5.952-7.226c0.664-0.443,1.56-0.266,2.004,0.398
			c0.443,0.663,0.265,1.561-0.398,2.004c-2.188,1.463-3.879,3.516-4.891,5.937C844.288,1241.78,843.75,1242.114,843.186,1242.114z
			 M1124.954,1233.151c-0.055,0-0.111-0.004-0.167-0.01c-0.51-0.059-1.03-0.089-1.546-0.089h-6.936
			c-0.798,0-1.445-0.646-1.445-1.444s0.647-1.444,1.445-1.444h6.936c0.625,0,1.257,0.036,1.875,0.106
			c0.793,0.091,1.362,0.808,1.271,1.601C1126.302,1232.607,1125.678,1233.151,1124.954,1233.151z M1107.653,1233.053h-8.651
			c-0.798,0-1.445-0.646-1.445-1.444s0.647-1.444,1.445-1.444h8.651c0.798,0,1.445,0.646,1.445,1.444
			S1108.451,1233.053,1107.653,1233.053z M1090.351,1233.053h-8.651c-0.798,0-1.445-0.646-1.445-1.444s0.647-1.444,1.445-1.444
			h8.651c0.798,0,1.445,0.646,1.445,1.444S1091.148,1233.053,1090.351,1233.053z M1073.048,1233.053h-8.651
			c-0.798,0-1.445-0.646-1.445-1.444s0.647-1.444,1.445-1.444h8.651c0.798,0,1.445,0.646,1.445,1.444
			S1073.846,1233.053,1073.048,1233.053z M1055.745,1233.053h-8.651c-0.798,0-1.445-0.646-1.445-1.444s0.647-1.444,1.445-1.444
			h8.651c0.798,0,1.445,0.646,1.445,1.444S1056.543,1233.053,1055.745,1233.053z M1038.442,1233.053h-8.651
			c-0.798,0-1.445-0.646-1.445-1.444s0.647-1.444,1.445-1.444h8.651c0.798,0,1.445,0.646,1.445,1.444
			S1039.24,1233.053,1038.442,1233.053z M1021.139,1233.053h-8.651c-0.798,0-1.445-0.646-1.445-1.444s0.647-1.444,1.445-1.444h8.651
			c0.798,0,1.445,0.646,1.445,1.444S1021.937,1233.053,1021.139,1233.053z M1003.836,1233.053h-8.651
			c-0.798,0-1.445-0.646-1.445-1.444s0.647-1.444,1.445-1.444h8.651c0.798,0,1.445,0.646,1.445,1.444
			S1004.634,1233.053,1003.836,1233.053z M986.534,1233.053h-8.651c-0.798,0-1.445-0.646-1.445-1.444s0.647-1.444,1.445-1.444h8.651
			c0.798,0,1.445,0.646,1.445,1.444S987.332,1233.053,986.534,1233.053z M969.231,1233.053h-8.651c-0.798,0-1.445-0.646-1.445-1.444
			s0.647-1.444,1.445-1.444h8.651c0.798,0,1.445,0.646,1.445,1.444S970.029,1233.053,969.231,1233.053z M951.928,1233.053h-8.651
			c-0.798,0-1.445-0.646-1.445-1.444s0.647-1.444,1.445-1.444h8.651c0.798,0,1.445,0.646,1.445,1.444
			S952.726,1233.053,951.928,1233.053z M934.625,1233.053h-8.652c-0.798,0-1.445-0.646-1.445-1.444s0.647-1.444,1.445-1.444h8.652
			c0.798,0,1.445,0.646,1.445,1.444S935.423,1233.053,934.625,1233.053z M917.322,1233.053h-8.651c-0.798,0-1.445-0.646-1.445-1.444
			s0.647-1.444,1.445-1.444h8.651c0.798,0,1.445,0.646,1.445,1.444S918.12,1233.053,917.322,1233.053z M900.02,1233.053h-8.651
			c-0.798,0-1.445-0.646-1.445-1.444s0.647-1.444,1.445-1.444h8.651c0.798,0,1.445,0.646,1.445,1.444
			S900.817,1233.053,900.02,1233.053z M882.717,1233.053h-8.651c-0.798,0-1.445-0.646-1.445-1.444s0.647-1.444,1.445-1.444h8.651
			c0.798,0,1.445,0.646,1.445,1.444S883.515,1233.053,882.717,1233.053z M865.414,1233.053h-8.622c-0.798,0-1.459-0.646-1.459-1.444
			s0.632-1.444,1.43-1.444h8.652c0.798,0,1.445,0.646,1.445,1.444S866.212,1233.053,865.414,1233.053z"/>
	</g>
	<g>
		<path fill="#D4E1FF" d="M1207.393,1186.393H857.726c-7.546,0-13.664-6.117-13.664-13.664V981.538
			c0-7.546,6.117-13.664,13.664-13.664h349.667c7.546,0,13.663,6.117,13.663,13.664v191.191
			C1221.056,1180.275,1214.938,1186.393,1207.393,1186.393z"/>
		<path fill="#F99746" d="M990.017,1033.789v86.688c0,5.421,6.025,8.67,10.554,5.69l65.882-43.345c4.09-2.69,4.09-8.689,0-11.38
			l-65.882-43.345C996.042,1025.119,990.017,1028.367,990.017,1033.789z"/>
		<g>
			<circle fill="#AEC3FF" cx="870.425" cy="1166.681" r="6.766"/>
			<path fill="#AEC3FF" d="M1178.266,1168.502h-306.02c-1.006,0-1.821-0.815-1.821-1.821l0,0c0-1.007,0.815-1.822,1.821-1.822
				h306.02c1.006,0,1.821,0.815,1.821,1.822l0,0C1180.087,1167.687,1179.272,1168.502,1178.266,1168.502z"/>
		</g>
	</g>
	<rect x="1196.62" y="1231.608" opacity="0.5" fill="#EBF3FA" width="195.038" height="291.146"/>
	<g>
		<g>
			<g>
				<path fill="#2B478B" d="M1312.862,1325.148h-2.668v-11.998c0-4.303,3.5-7.803,7.803-7.803h32.999
					c2.331,0,4.373-1.575,4.966-3.83l5.219-19.84c0.408-1.552,0.081-3.171-0.899-4.442c-0.98-1.271-2.462-2-4.067-2h-43.056v-2.668
					h43.056c2.438,0,4.691,1.107,6.18,3.04c1.489,1.93,1.987,4.391,1.367,6.75l-5.219,19.84c-0.901,3.425-4.004,5.818-7.546,5.818
					h-32.999c-2.831,0-5.135,2.303-5.135,5.135V1325.148z"/>
			</g>
			<path fill="#F99746" d="M1343.883,1285.158h-56.706c-4.786,0-8.665-3.88-8.665-8.665v-5.182c0-4.786,3.879-8.665,8.665-8.665
				h56.706c4.786,0,8.665,3.879,8.665,8.665v5.182C1352.547,1281.278,1348.668,1285.158,1343.883,1285.158z"/>
			<path fill="#2B478B" d="M1311.528,1374.949L1311.528,1374.949c-4.052,0-7.337-3.284-7.337-7.336v-44.466
				c0-4.052,3.285-7.337,7.337-7.337l0,0c4.052,0,7.337,3.285,7.337,7.337v44.466
				C1318.865,1371.665,1315.58,1374.949,1311.528,1374.949z"/>
		</g>
		<g>
			<path fill="#FFB27D" d="M1592.301,1471.371c0,0,5.048,15.546,4.614,19.101c-0.434,3.556-3.603,15.704-5.866,18.813
				c-2.264,3.11-3.381-12.664-5.172-15.037c-1.791-2.374-0.368,5.939-1.631,6.709c-1.264,0.769-3.896-6.115-5.028-8.544
				c-1.133-2.429,2.768-11.385,2.778-17.626C1582.007,1468.545,1592.301,1471.371,1592.301,1471.371z"/>
			<path fill="#233862" d="M1473.587,1347.884c-1.398-17.826,17.965-30.048,33.255-20.776c0.314,0.189,0.625,0.384,0.933,0.582
				c22.891,14.733,72.283,83.485,75.681,90.372c3.397,6.888,13.433,61.68,13.433,61.68s-12.398,4.536-18.195-0.17
				c0,0-20.109-51.964-23.082-54.562c-2.973-2.597-80.428-46.057-81.088-62.351
				C1474.348,1358.352,1474.002,1353.172,1473.587,1347.884z"/>
		</g>
		<g>
			<path fill="#2A4A7C" d="M1611.805,1750.299c0,0,9.229,8.422,7.428,14.407c-1.801,5.984-10.13,9.974-11.255,17.289
				c-1.126,7.314-5.628,11.304-9.68,11.304s-19.317,0-19.317,0s-2.983-5.146,4.221-6.698c7.203-1.552,9.919-10.147,9.469-18.127
				s0.676-18.618,0.676-18.618l15.307-3.547L1611.805,1750.299z"/>
			<path fill="#2A4A7C" d="M1498.575,1772.083c0,0,1.657,19.169-2.396,21.163l-51.855-0.105c0,0,0-5.985,8.329-7.314
				c8.329-1.33,22.961-6.207,25.438-17.067C1480.566,1757.897,1498.575,1772.083,1498.575,1772.083z"/>
			<path fill="#F99746" d="M1454.795,1501.311c0,0,2.735,33.601,5.95,73.99c4.369,54.865,9.623,122.259,10.144,135.026
				c0.897,22.169,4.504,57.632,4.504,57.632s8.55,8.425,25.662,4.874c0,0,15.249-50.623,19.604-104.186
				c0.067-0.878,0.136-1.763,0.203-2.646c4.052-54.526,10.353-169.345,10.353-169.345L1454.795,1501.311z"/>
			<path fill="#EF7E29" d="M1454.795,1501.311c0,0,2.735,33.601,5.95,73.99l59.914,93.347c0.067-0.878,0.136-1.763,0.203-2.646
				c4.052-54.526,10.353-169.345,10.353-169.345L1454.795,1501.311z"/>
			<path fill="#F99746" d="M1467.285,1505.301c0,0,49.299,121.688,81.714,178.874c32.416,57.187,42.546,73.145,42.546,73.145
				s18.571-7.314,20.26-12.302c0,0-12.396-110.4-34.104-137.313c-12.266-15.207-26.675-60.843-27.351-76.802
				c-0.675-15.959-4.39-47.545-4.39-47.545L1467.285,1505.301z"/>
		</g>
		<path fill="#FFB27D" d="M1509.794,1322.764c0,0-33.03,16.752-52.375,11.163c0,0,4.614-6.063,12.808-10.67
			c-0.741-3.847-1.325-7.185-1.678-10.019c-0.943-6.537-1.018-10.251-1.018-10.251l12.666-10.375l12.009-9.927
			C1491.785,1309.937,1509.794,1322.764,1509.794,1322.764z"/>
		<path fill="#2B478B" d="M1542.602,1492.986c-13.335,8.071-25.961,14.14-40.736,17.549c-17.428,4.133-38.848,2.914-46.014,4.005
			c-0.737,0.101-1.434-0.094-2.09-0.528c-0.563-0.288-3.725-21.547-6.893-48.379c-0.141-1.078-0.287-2.17-0.348-3.262l-0.047-0.361
			c-1.232-10.489-2.311-21.508-3.248-32.552c-0.764-8.594-1.394-17.093-1.829-25.077c-0.55-9.986-0.777-19.162-0.55-26.711
			c0.101-3.449,0.302-6.55,0.61-9.243c1.889-15.673,9.363-26.871,16.402-35.21l5.841-6.645c6.771,0.429,13.684-0.851,20.207-5.157
			c7.134-4.695,14.829-9.745,16.283-8.901c10.931,5.981,19.832,21.479,26.188,41.948c3.644,11.782,6.443,25.15,8.231,39.31
			c0.576,4.395,1.064,8.901,1.439,13.389c0.074,0.831,0.135,1.661,0.201,2.479c0.857,12.271,2.258,23.771,3.812,34.039
			c2.09,13.851,4.467,25.451,6.148,33.623c0.844,4.159,1.487,7.374,1.868,9.678
			C1548.422,1488.988,1544.396,1491.868,1542.602,1492.986z"/>
		<path fill="#ED985F" d="M1492.635,1293.094c0,0-8.125,15.53-24.086,20.145c-0.943-6.537-1.018-10.251-1.018-10.251l12.666-10.375
			L1492.635,1293.094z"/>
		<path fill="#FFB27D" d="M1461.656,1302.66c0,0,31.917,4.573,34.516-15.044s8.468-32.239-11.801-35.988s-25.228,3.229-27.712,9.57
			S1453.42,1300.965,1461.656,1302.66z"/>
		<path fill="#2C3A64" d="M1506.97,1248.837c0.282-0.337,0.943-0.617,2.424-0.728c0,0-1.199-0.717-2.784-0.725
			c-0.352-2.056-1.521-5.683-5.086-6.499c0,0,1.927,0.979,2.22,3.165c-4.193-4.139-13.06-7.035-37.402-4.627
			c-32.083,3.174-21.085,23.537-16.876,25.906c4.209,2.37,14.547-4.561,22.31-4.1s9.459,11.632,12.118,13.116
			c2.66,1.485,1.572-1.212,5.098-2.891c3.526-1.679,3.981,4.21,3.029,8.063c-0.951,3.854,4.037,8.813,4.037,8.813s0,0,4.834-5.418
			c4.835-5.418,9.043-28.043,6.702-32.802C1507.386,1249.69,1507.181,1249.265,1506.97,1248.837z"/>
		<path fill="#233862" d="M1496.836,1379.418c0,0-26.912,20.476-55.438,24.963c-0.55-9.986-0.777-19.162-0.55-26.711
			L1496.836,1379.418z"/>
		<g>
			<path fill="#FFB27D" d="M1331.568,1352.996c-0.424-0.455-5.911-18.8-15.399-17.462c-6.192,0.873-16.312,4.457-13.625,12.614
				c1.057,3.208,19.922,14.255,19.922,14.255L1331.568,1352.996z"/>
			<path fill="#2B478B" d="M1500.163,1339.854c15.345,9.18,14.101,32.044-2.311,39.144c-0.337,0.146-0.675,0.287-1.015,0.423
				c-25.266,10.136-109.919,10.607-117.501,9.39c-7.583-1.217-58.069-24.755-58.069-24.755s3.479-12.735,10.673-14.737
				c0,0,54.012,13.686,57.85,12.766c3.839-0.92,84.116-38.915,97.784-30.021C1491.188,1334.415,1495.611,1337.131,1500.163,1339.854
				z"/>
		</g>
	</g>
	<g>
		<path fill="#EBF3FA" d="M2069.643,737.594h-67.387c-2.832,0-5.149-2.317-5.149-5.15l0,0c0-2.832,2.317-5.149,5.149-5.149h67.387
			c2.833,0,5.15,2.317,5.15,5.149l0,0C2074.793,735.277,2072.476,737.594,2069.643,737.594z"/>
		<path fill="#EBF3FA" d="M2069.643,757.715h-67.387c-2.832,0-5.149-2.317-5.149-5.15l0,0c0-2.833,2.317-5.15,5.149-5.15h67.387
			c2.833,0,5.15,2.317,5.15,5.15l0,0C2074.793,755.397,2072.476,757.715,2069.643,757.715z"/>
		<path fill="#EBF3FA" d="M2069.643,778.354h-67.387c-2.832,0-5.149-2.317-5.149-5.15l0,0c0-2.832,2.317-5.149,5.149-5.149h67.387
			c2.833,0,5.15,2.317,5.15,5.149l0,0C2074.793,776.037,2072.476,778.354,2069.643,778.354z"/>
	</g>
	<path fill="#EBF3FA" d="M1805.759,1264.231h-160.424c-3.756,0-6.829-3.073-6.829-6.828l0,0c0-3.756,3.073-6.829,6.829-6.829
		h160.424c3.757,0,6.829,3.073,6.829,6.829l0,0C1812.588,1261.158,1809.516,1264.231,1805.759,1264.231z"/>
	<path fill="#EBF3FA" d="M1021.57,795.523H861.146c-3.756,0-6.829-3.073-6.829-6.829l0,0c0-3.756,3.073-6.829,6.829-6.829h160.424
		c3.756,0,6.829,3.073,6.829,6.829l0,0C1028.399,792.451,1025.326,795.523,1021.57,795.523z"/>
	<path fill="#EBF3FA" d="M1805.759,1331.977h-160.424c-3.756,0-6.829-3.072-6.829-6.828l0,0c0-3.756,3.073-6.829,6.829-6.829
		h160.424c3.757,0,6.829,3.073,6.829,6.829l0,0C1812.588,1328.904,1809.516,1331.977,1805.759,1331.977z"/>
	<path fill="#EBF3FA" d="M1805.759,1298.104h-191.87c-3.756,0-6.829-3.073-6.829-6.829l0,0c0-3.756,3.073-6.828,6.829-6.828h191.87
		c3.757,0,6.829,3.072,6.829,6.828l0,0C1812.588,1295.031,1809.516,1298.104,1805.759,1298.104z"/>
	<g>
		<path fill="#EBF3FA" d="M973.951,838.463h-90.519c-2.86,0-5.199-2.34-5.199-5.2v-3.259c0-2.859,2.339-5.199,5.199-5.199h90.519
			c2.859,0,5.199,2.34,5.199,5.199v3.259C979.15,836.124,976.811,838.463,973.951,838.463z"/>
		<circle fill="#EBF3FA" cx="855.085" cy="831.634" r="6.829"/>
	</g>
	<g>
		<path fill="#EBF3FA" d="M991.133,865.64H883.868c-3.099,0-5.635-2.536-5.635-5.635v-2.388c0-3.099,2.536-5.635,5.635-5.635
			h107.265c3.099,0,5.635,2.536,5.635,5.635v2.388C996.769,863.104,994.232,865.64,991.133,865.64z"/>
		<circle fill="#EBF3FA" cx="855.085" cy="858.812" r="6.829"/>
	</g>
	<g>
		<path fill="#EBF3FA" d="M973.951,895.141h-90.519c-2.86,0-5.199-2.34-5.199-5.199v-3.259c0-2.86,2.339-5.2,5.199-5.2h90.519
			c2.859,0,5.199,2.34,5.199,5.2v3.259C979.15,892.801,976.811,895.141,973.951,895.141z"/>
		<circle fill="#EBF3FA" cx="855.085" cy="888.312" r="6.829"/>
	</g>
	<g>
		<g>
			<path fill="#739AF0" d="M1138.613,853.757c-1.186,0.163-2.391,0.239-3.61,0.225c-6.435-0.075-12.455-2.65-16.953-7.253
				c-9.284-9.502-9.106-24.785,0.395-34.069v0c9.502-9.284,24.785-9.107,34.069,0.395c9.284,9.502,9.107,24.786-0.395,34.07
				C1148.389,850.769,1143.688,853.06,1138.613,853.757z M1121.219,815.498c-7.937,7.755-8.084,20.521-0.33,28.458
				c3.757,3.845,8.786,5.997,14.161,6.059c5.37,0.062,10.452-1.972,14.297-5.729c7.937-7.755,8.085-20.521,0.331-28.458
				C1141.921,807.89,1129.154,807.743,1121.219,815.498L1121.219,815.498z"/>
		</g>
		
			<rect x="1105.727" y="840.392" transform="matrix(0.6989 0.7152 -0.7152 0.6989 946.3984 -534.2701)" fill="#739AF0" width="3.968" height="32.879"/>
		<path fill="#739AF0" d="M1087.78,876.306L1087.78,876.306c-1.368-1.4-1.341-3.643,0.058-5.01l13.85-13.532
			c1.4-1.368,3.643-1.342,5.01,0.058l0,0c1.368,1.399,1.341,3.643-0.058,5.01l-13.85,13.533
			C1091.391,877.731,1089.147,877.705,1087.78,876.306z"/>
	</g>
	<g>
		<path fill="#2A4E96" d="M2015.579,1793.75L2015.579,1793.75c-3.072,0.019-6.298-2.203-7.204-4.961l-185.106-563.609
			c-0.905-2.758,0.851-5.008,3.924-5.025l0,0c3.072-0.018,6.298,2.203,7.203,4.961l185.106,563.609
			C2020.408,1791.482,2018.652,1793.732,2015.579,1793.75z"/>
		<path fill="#2A4E96" d="M2164.764,1792.887L2164.764,1792.887c-3.072,0.018-6.298-2.203-7.203-4.961l-185.107-563.609
			c-0.905-2.758,0.852-5.008,3.924-5.025l0,0c3.072-0.018,6.298,2.203,7.203,4.961l185.107,563.609
			C2169.594,1790.619,2167.837,1792.869,2164.764,1792.887z"/>
		<path fill="#2A4E96" d="M2004.133,1302.85l-149.809,0.867c-2.889,0.017-5.948-2.091-6.8-4.684l0,0
			c-0.852-2.593,0.815-4.728,3.703-4.744l149.809-0.867c2.889-0.017,5.948,2.091,6.8,4.684l0,0
			C2008.688,1300.698,2007.021,1302.833,2004.133,1302.85z"/>
		<path fill="#2A4E96" d="M2036.452,1401.255l-149.809,0.866c-2.889,0.018-5.948-2.091-6.8-4.683l0,0
			c-0.852-2.593,0.814-4.729,3.703-4.745l149.809-0.867c2.889-0.017,5.949,2.092,6.8,4.684l0,0
			C2041.007,1399.103,2039.34,1401.238,2036.452,1401.255z"/>
		<path fill="#2A4E96" d="M2067.579,1496.029l-149.809,0.867c-2.888,0.017-5.948-2.091-6.8-4.684l0,0
			c-0.852-2.593,0.815-4.728,3.703-4.744l149.809-0.867c2.889-0.017,5.949,2.091,6.8,4.684l0,0
			C2072.134,1493.878,2070.467,1496.013,2067.579,1496.029z"/>
		<path fill="#2A4E96" d="M2102.621,1602.726l-149.808,0.867c-2.889,0.017-5.949-2.091-6.8-4.684l0,0
			c-0.853-2.593,0.814-4.728,3.703-4.745l149.808-0.866c2.889-0.017,5.949,2.091,6.8,4.684l0,0
			C2107.176,1600.574,2105.51,1602.709,2102.621,1602.726z"/>
		<path fill="#2A4E96" d="M2139.299,1714.4l-149.809,0.867c-2.889,0.017-5.948-2.091-6.8-4.684l0,0
			c-0.852-2.593,0.815-4.728,3.704-4.744l149.808-0.867c2.889-0.017,5.949,2.091,6.8,4.684l0,0
			C2143.854,1712.249,2142.188,1714.384,2139.299,1714.4z"/>
	</g>
	<g>
		<path fill="#2A4E96" d="M1816.806,967.044L1816.806,967.044c-1.174,0.227-2.32-0.547-2.548-1.722l-2.397-12.384
			c-0.227-1.174,0.548-2.32,1.722-2.548l0,0c1.174-0.227,2.32,0.547,2.548,1.721l2.397,12.385
			C1818.755,965.67,1817.98,966.816,1816.806,967.044z"/>
		
			<rect x="1810.523" y="929.337" transform="matrix(0.9818 -0.1901 0.1901 0.9818 -145.3607 361.4013)" fill="#2A4E96" width="1.495" height="18.232"/>
		<path fill="#FFB27D" d="M1810.278,828.615c0,0-1.416-12.328-4.403-17.041c-2.988-4.712-14.28-7.739-14.995-7.047
			c-2.211,2.142,6.532,9.714,6.874,12.504c0.343,2.791-4.438,0.861-2.142,6.301c1.938,4.595,8.329,10.553,8.329,10.553
			L1810.278,828.615z"/>
		<path fill="#E58638" d="M1804.833,827.241c4.119-3.232,4.993-3.17,4.993-3.17s38.093,33.001,41.802,35.939
			c3.708,2.939,60.922,19.53,60.922,19.53l9.091,46.509c0,0-77.416-37.392-86.666-45.022c-15.287-12.61-34.574-47.899-34.574-47.899
			S1801.598,829.78,1804.833,827.241z"/>
		<path fill="#163560" d="M1913.778,1274.227c0,0-0.656,15.896-3.708,19.761l-42.462,0.245c0.296-1.639,0.475-5.43,6.346-6.455
			c7.42-1.291,16.133-6.467,20.623-16.273C1899.307,1261.188,1913.778,1274.227,1913.778,1274.227z"/>
		<path fill="#163560" d="M1997.106,1271.936c0,0,2.96,21.117-1.06,21.486c-0.534,0.049-17.111,0.316-24.289,0.436
			c-8.442,0.142-22.313-0.156-22.313-0.156c-1.744,0.072-2.888-1.816-1.999-3.319c0.975-1.649,2.834-3.411,6.379-4.093
			c7.395-1.424,19.718-6.855,24.038-16.737C1982.409,1259.155,1997.106,1271.936,1997.106,1271.936z"/>
		<path fill="#233862" d="M1891.699,1055.534c0,0,11.807,41.314,45.646,113.059c33.84,71.744,35.303,106.32,35.303,106.32
			s5.123,1.812,11.918,1.087c7.352-0.784,12.541-4.064,12.541-4.064s-2.192-85.396-18.176-121.601
			c-15.984-36.206-19.241-135.28-19.241-135.28L1891.699,1055.534z"/>
		<path fill="#2A4E96" d="M1872.744,1019.986c0,0-0.94,63.974,10.128,142.521c11.069,78.549,5.894,115.078,5.894,115.078
			s2.934,2.136,11.958,2.101c10.563-0.042,15.976-4.406,15.976-4.406s15.842-78.577,11.3-117.893s21.694-134.908,21.694-134.908
			L1872.744,1019.986z"/>
		<path fill="#FFB27D" d="M1925.053,870.28l-12.503,9.261l-18.07-3.804c0.25-1.648,1.442-8.478,2.528-14.664
			c0.066-0.365,0.132-0.729,0.193-1.086c0.931-5.264,1.734-9.786,1.734-9.786l16.877-8.412l6.293-3.136
			c-0.017,0.111-0.488,5.842-0.554,6.678C1920.371,860.187,1925.053,870.28,1925.053,870.28z"/>
		<path fill="#F99746" d="M1960.866,1027.888c-4.087,18.698-91.587,10.49-90.445-0.924c0.044-0.381,0.272-5.664,0.587-12.784
			c0.664-15.404,1.675-39.472,1.805-41.353c0-0.033,0.011-0.065,0.011-0.098c1.576-15.894,3.088-31.438,3.186-41.592
			c0.087-8.805,1.305-17.806,2.913-25.981c1.489-7.544,3.316-14.393,4.903-19.73c1.119-3.762,3.207-7.066,5.968-9.665
			c1.968-1.848,4.272-3.337,6.816-4.348c0.695-0.293,1.402-0.533,2.119-0.739c10.295-2.989,24.547-6.686,28.406-5.555
			c10.457,3.076,18.23,21.491,23.73,44.961C1961.16,954.01,1963.541,1015.701,1960.866,1027.888z"/>
		<path fill="#FCA56B" d="M1920.285,845.593c-3.706,7.092-17.517,13.225-23.277,15.479c0.066-0.365,0.132-0.729,0.193-1.086
			c0.931-5.264,1.734-9.786,1.734-9.786l16.877-8.412C1919.543,841.731,1921.814,842.674,1920.285,845.593z"/>
		<path fill="#FFB27D" d="M1890.733,849.213c0,0,30.449,9.498,36.072-9.555c5.623-19.053,13.341-30.659-5.862-37.529
			s-25.144-0.72-28.567,5.184C1888.952,813.215,1882.958,846.251,1890.733,849.213z"/>
		<path fill="#163560" d="M1893.572,805.477c0,0,1.941,22.172,6.526,21.209c4.585-0.962,8.744-1.676,8.072,5.007
			c-0.671,6.684-7.029,14.401,7.102,15.583c14.131,1.183,34.445-35.26,30.563-42.16
			C1934.635,785.207,1877.383,781.189,1893.572,805.477z"/>
		<path fill="#E58638" d="M1871.008,1014.18c0.664-15.404,1.675-39.472,1.805-41.353c0-0.033,0.011-0.065,0.011-0.098l51.691-30.906
			C1924.515,941.823,1926.515,1013.974,1871.008,1014.18z"/>
		<path fill="#FFB27D" d="M1829.92,949.505c0,0-10.505-7.106-12.498-7.726c-1.992-0.619-8.524-1.29-8.828-0.775
			c-0.303,0.515-1.198,2.09-0.057,2.624s2.563,0.346,2.136,0.719c-0.426,0.373-4.721-1.671-5.711,0.519
			c-0.991,2.19-1.862,9.692,3.177,11.967c5.038,2.275,17.477,0.219,18.373,0.48C1834.118,959.524,1829.92,949.505,1829.92,949.505z"
			/>
		<path fill="#F99746" d="M1829.822,947.584c0,0,51.272,8.716,55.816,6.504c7.251-3.531-2.814-55.552-2.814-55.552
			s-0.433-11.79,13.339-14.57c11.968-2.417,23.514,6.548,23.514,6.548s10.5,9.396,9.159,19.817
			c-2.975,23.101-7.601,70.086-23.052,77.288c-19.929,9.289-77.596-25.759-77.596-25.759s-1.92-2.352-1.647-6.718
			C1826.782,951.291,1829.822,947.584,1829.822,947.584z"/>
		<path fill="#FFB27D" d="M1795.371,822.712c0,0-3.282-6.523-3.807-7.748c-0.525-1.224,0.753-0.96,2.016-0.277
			c1.264,0.683,2.985,4.469,4.933,4.012C1800.06,818.338,1795.371,822.712,1795.371,822.712z"/>
	</g>
</g>
</svg>
